<svg xmlns="http://www.w3.org/2000/svg" xmlns:xlink="http://www.w3.org/1999/xlink" width="950" zoomAndPan="magnify" viewBox="0 0 712.5 712.499978" height="950" preserveAspectRatio="xMidYMid meet" version="1.0"><defs><g/></defs><path fill="#000000" d="M 174.984375 293.289062 C 137.066406 290.863281 105.675781 322.253906 108.101562 360.171875 C 110.105469 391.515625 135.421875 416.832031 166.761719 418.835938 C 204.683594 421.261719 236.074219 389.871094 233.648438 351.949219 C 231.644531 320.609375 206.328125 295.289062 174.984375 293.289062 Z M 199.355469 387.273438 C 201.832031 378.773438 203.308594 369 203.507812 358.480469 L 228.878906 358.480469 C 228.324219 371.964844 223.148438 384.269531 214.894531 393.867188 C 211.109375 391.214844 205.816406 388.972656 199.355469 387.273438 Z M 126.855469 393.867188 C 118.601562 384.269531 113.425781 371.964844 112.867188 358.480469 L 138.242188 358.480469 C 138.441406 369 139.917969 378.773438 142.390625 387.273438 C 135.929688 388.972656 130.636719 391.214844 126.855469 393.867188 Z M 142.378906 324.890625 C 139.910156 333.382812 138.4375 343.144531 138.242188 353.640625 L 112.867188 353.640625 C 113.421875 340.222656 118.550781 327.96875 126.734375 318.394531 C 130.585938 321.003906 135.917969 323.214844 142.378906 324.890625 Z M 168.453125 353.640625 L 143.082031 353.640625 C 143.289062 343.628906 144.777344 334.175781 147.210938 326.003906 C 153.75 327.320312 161.003906 328.070312 168.453125 328.207031 Z M 168.453125 358.480469 L 168.453125 383.917969 C 160.988281 384.050781 153.734375 384.8125 147.21875 386.148438 C 144.78125 377.96875 143.289062 368.507812 143.082031 358.480469 Z M 173.292969 358.480469 L 198.667969 358.480469 C 198.460938 368.507812 196.964844 377.96875 194.527344 386.148438 C 188.011719 384.8125 180.761719 384.050781 173.292969 383.917969 Z M 173.292969 353.640625 L 173.292969 328.207031 C 180.746094 328.070312 187.996094 327.320312 194.539062 326 C 196.96875 334.175781 198.460938 343.628906 198.667969 353.640625 Z M 173.292969 323.367188 L 173.292969 298.238281 C 181.242188 299.746094 188.351562 308.574219 193.011719 321.378906 C 186.933594 322.5625 180.207031 323.238281 173.292969 323.367188 Z M 168.453125 298.238281 L 168.453125 323.367188 C 161.542969 323.238281 154.816406 322.5625 148.734375 321.378906 C 153.398438 308.574219 160.507812 299.746094 168.453125 298.238281 Z M 168.453125 388.753906 L 168.453125 413.886719 C 160.511719 412.378906 153.40625 403.5625 148.746094 390.773438 C 154.804688 389.570312 161.527344 388.886719 168.453125 388.753906 Z M 173.292969 413.882812 L 173.292969 388.753906 C 180.21875 388.886719 186.941406 389.570312 193.003906 390.773438 C 188.339844 403.5625 181.234375 412.378906 173.292969 413.882812 Z M 203.507812 353.640625 C 203.308594 343.144531 201.835938 333.382812 199.371094 324.890625 C 205.832031 323.210938 211.164062 321.003906 215.011719 318.394531 C 223.195312 327.96875 228.328125 340.222656 228.878906 353.640625 Z M 211.667969 314.785156 C 208.28125 316.929688 203.539062 318.824219 197.890625 320.273438 C 194.855469 311.6875 190.734375 304.703125 185.878906 299.96875 C 195.753906 302.613281 204.597656 307.800781 211.667969 314.785156 Z M 143.855469 320.273438 C 138.210938 318.824219 133.46875 316.933594 130.082031 314.785156 C 137.148438 307.800781 145.996094 302.617188 155.871094 299.972656 C 151.015625 304.703125 146.890625 311.691406 143.855469 320.273438 Z M 130.203125 397.457031 C 133.519531 395.277344 138.222656 393.359375 143.871094 391.890625 C 146.90625 400.457031 151.023438 407.425781 155.871094 412.152344 C 146.050781 409.523438 137.253906 404.378906 130.203125 397.457031 Z M 197.875 391.890625 C 203.523438 393.359375 208.230469 395.277344 211.542969 397.457031 C 204.496094 404.382812 195.699219 409.523438 185.878906 412.152344 C 190.726562 407.425781 194.839844 400.457031 197.875 391.890625 Z M 197.875 391.890625 " fill-opacity="1" fill-rule="nonzero"/><g fill="#000000" fill-opacity="1"><g transform="translate(235.999055, 336.561698)"><g><path d="M 30.28125 -11.75 C 30.28125 -9.238281 29.671875 -7.054688 28.453125 -5.203125 C 27.242188 -3.347656 25.476562 -1.921875 23.15625 -0.921875 C 20.832031 0.078125 18.007812 0.578125 14.6875 0.578125 C 13.226562 0.578125 11.796875 0.476562 10.390625 0.28125 C 8.992188 0.09375 7.65625 -0.1875 6.375 -0.5625 C 5.09375 -0.9375 3.875 -1.40625 2.71875 -1.96875 L 2.71875 -10.296875 C 4.726562 -9.410156 6.8125 -8.609375 8.96875 -7.890625 C 11.125 -7.179688 13.265625 -6.828125 15.390625 -6.828125 C 16.847656 -6.828125 18.023438 -7.019531 18.921875 -7.40625 C 19.828125 -7.789062 20.476562 -8.316406 20.875 -8.984375 C 21.28125 -9.660156 21.484375 -10.4375 21.484375 -11.3125 C 21.484375 -12.375 21.125 -13.28125 20.40625 -14.03125 C 19.695312 -14.78125 18.722656 -15.484375 17.484375 -16.140625 C 16.242188 -16.796875 14.84375 -17.5 13.28125 -18.25 C 12.289062 -18.707031 11.21875 -19.269531 10.0625 -19.9375 C 8.90625 -20.601562 7.804688 -21.414062 6.765625 -22.375 C 5.722656 -23.34375 4.867188 -24.515625 4.203125 -25.890625 C 3.535156 -27.273438 3.203125 -28.929688 3.203125 -30.859375 C 3.203125 -33.390625 3.78125 -35.550781 4.9375 -37.34375 C 6.101562 -39.132812 7.757812 -40.503906 9.90625 -41.453125 C 12.050781 -42.410156 14.59375 -42.890625 17.53125 -42.890625 C 19.726562 -42.890625 21.820312 -42.632812 23.8125 -42.125 C 25.8125 -41.613281 27.898438 -40.875 30.078125 -39.90625 L 27.1875 -32.9375 C 25.238281 -33.726562 23.492188 -34.34375 21.953125 -34.78125 C 20.410156 -35.21875 18.835938 -35.4375 17.234375 -35.4375 C 16.117188 -35.4375 15.164062 -35.253906 14.375 -34.890625 C 13.582031 -34.535156 12.984375 -34.035156 12.578125 -33.390625 C 12.171875 -32.742188 11.96875 -32 11.96875 -31.15625 C 11.96875 -30.144531 12.257812 -29.296875 12.84375 -28.609375 C 13.4375 -27.929688 14.328125 -27.273438 15.515625 -26.640625 C 16.703125 -26.003906 18.179688 -25.257812 19.953125 -24.40625 C 22.117188 -23.382812 23.96875 -22.316406 25.5 -21.203125 C 27.03125 -20.097656 28.207031 -18.796875 29.03125 -17.296875 C 29.863281 -15.804688 30.28125 -13.957031 30.28125 -11.75 Z M 30.28125 -11.75 "/></g></g></g><g fill="#000000" fill-opacity="1"><g transform="translate(268.619897, 336.561698)"><g><path d="M 13.453125 -32.34375 L 13.453125 0 L 4.625 0 L 4.625 -32.34375 Z M 9.046875 -45 C 10.359375 -45 11.488281 -44.695312 12.4375 -44.09375 C 13.382812 -43.488281 13.859375 -42.351562 13.859375 -40.6875 C 13.859375 -39.050781 13.382812 -37.921875 12.4375 -37.296875 C 11.488281 -36.671875 10.359375 -36.359375 9.046875 -36.359375 C 7.722656 -36.359375 6.59375 -36.671875 5.65625 -37.296875 C 4.71875 -37.921875 4.25 -39.050781 4.25 -40.6875 C 4.25 -42.351562 4.71875 -43.488281 5.65625 -44.09375 C 6.59375 -44.695312 7.722656 -45 9.046875 -45 Z M 9.046875 -45 "/></g></g></g><g fill="#000000" fill-opacity="1"><g transform="translate(286.69441, 336.561698)"><g><path d="M 18.25 -6.453125 C 19.21875 -6.453125 20.15625 -6.546875 21.0625 -6.734375 C 21.976562 -6.929688 22.890625 -7.175781 23.796875 -7.46875 L 23.796875 -0.890625 C 22.859375 -0.472656 21.6875 -0.125 20.28125 0.15625 C 18.882812 0.4375 17.359375 0.578125 15.703125 0.578125 C 13.773438 0.578125 12.046875 0.265625 10.515625 -0.359375 C 8.984375 -0.984375 7.773438 -2.070312 6.890625 -3.625 C 6.015625 -5.175781 5.578125 -7.34375 5.578125 -10.125 L 5.578125 -25.71875 L 1.359375 -25.71875 L 1.359375 -29.4375 L 6.21875 -32.390625 L 8.765625 -39.21875 L 14.40625 -39.21875 L 14.40625 -32.34375 L 23.453125 -32.34375 L 23.453125 -25.71875 L 14.40625 -25.71875 L 14.40625 -10.125 C 14.40625 -8.882812 14.753906 -7.960938 15.453125 -7.359375 C 16.160156 -6.753906 17.09375 -6.453125 18.25 -6.453125 Z M 18.25 -6.453125 "/></g></g></g><g fill="#000000" fill-opacity="1"><g transform="translate(312.403588, 336.561698)"><g><path d="M 17.96875 -32.9375 C 20.945312 -32.9375 23.515625 -32.363281 25.671875 -31.21875 C 27.835938 -30.070312 29.507812 -28.410156 30.6875 -26.234375 C 31.863281 -24.054688 32.453125 -21.394531 32.453125 -18.25 L 32.453125 -13.96875 L 11.59375 -13.96875 C 11.695312 -11.476562 12.445312 -9.523438 13.84375 -8.109375 C 15.238281 -6.691406 17.179688 -5.984375 19.671875 -5.984375 C 21.734375 -5.984375 23.617188 -6.195312 25.328125 -6.625 C 27.046875 -7.050781 28.8125 -7.6875 30.625 -8.53125 L 30.625 -1.703125 C 29.03125 -0.910156 27.359375 -0.332031 25.609375 0.03125 C 23.867188 0.394531 21.753906 0.578125 19.265625 0.578125 C 16.023438 0.578125 13.15625 -0.0195312 10.65625 -1.21875 C 8.15625 -2.414062 6.195312 -4.238281 4.78125 -6.6875 C 3.363281 -9.132812 2.65625 -12.21875 2.65625 -15.9375 C 2.65625 -19.71875 3.296875 -22.863281 4.578125 -25.375 C 5.859375 -27.894531 7.644531 -29.785156 9.9375 -31.046875 C 12.238281 -32.304688 14.914062 -32.9375 17.96875 -32.9375 Z M 18.015625 -26.671875 C 16.296875 -26.671875 14.875 -26.117188 13.75 -25.015625 C 12.625 -23.921875 11.972656 -22.195312 11.796875 -19.84375 L 24.171875 -19.84375 C 24.160156 -21.15625 23.925781 -22.320312 23.46875 -23.34375 C 23.019531 -24.363281 22.34375 -25.171875 21.4375 -25.765625 C 20.539062 -26.367188 19.398438 -26.671875 18.015625 -26.671875 Z M 18.015625 -26.671875 "/></g></g></g><g fill="#000000" fill-opacity="1"><g transform="translate(347.395804, 336.561698)"><g><path d="M 23.21875 0 L 13.046875 -33.171875 L 12.78125 -33.171875 C 12.820312 -32.378906 12.882812 -31.1875 12.96875 -29.59375 C 13.0625 -28.007812 13.144531 -26.320312 13.21875 -24.53125 C 13.289062 -22.738281 13.328125 -21.117188 13.328125 -19.671875 L 13.328125 0 L 5.328125 0 L 5.328125 -42.28125 L 17.53125 -42.28125 L 27.53125 -9.953125 L 27.703125 -9.953125 L 38.328125 -42.28125 L 50.53125 -42.28125 L 50.53125 0 L 42.171875 0 L 42.171875 -20.015625 C 42.171875 -21.347656 42.191406 -22.878906 42.234375 -24.609375 C 42.285156 -26.347656 42.347656 -28.003906 42.421875 -29.578125 C 42.503906 -31.148438 42.566406 -32.328125 42.609375 -33.109375 L 42.34375 -33.109375 L 31.4375 0 Z M 23.21875 0 "/></g></g></g><g fill="#000000" fill-opacity="1"><g transform="translate(403.238774, 336.561698)"><g><path d="M 17.875 -33 C 22.207031 -33 25.53125 -32.050781 27.84375 -30.15625 C 30.164062 -28.269531 31.328125 -25.398438 31.328125 -21.546875 L 31.328125 0 L 25.15625 0 L 23.453125 -4.390625 L 23.21875 -4.390625 C 22.300781 -3.234375 21.359375 -2.289062 20.390625 -1.5625 C 19.421875 -0.832031 18.3125 -0.296875 17.0625 0.046875 C 15.8125 0.398438 14.289062 0.578125 12.5 0.578125 C 10.582031 0.578125 8.867188 0.210938 7.359375 -0.515625 C 5.847656 -1.253906 4.65625 -2.378906 3.78125 -3.890625 C 2.914062 -5.398438 2.484375 -7.320312 2.484375 -9.65625 C 2.484375 -13.09375 3.6875 -15.625 6.09375 -17.25 C 8.507812 -18.882812 12.128906 -19.785156 16.953125 -19.953125 L 22.5625 -20.125 L 22.5625 -21.546875 C 22.5625 -23.242188 22.117188 -24.488281 21.234375 -25.28125 C 20.347656 -26.070312 19.113281 -26.46875 17.53125 -26.46875 C 15.96875 -26.46875 14.429688 -26.242188 12.921875 -25.796875 C 11.421875 -25.359375 9.921875 -24.800781 8.421875 -24.125 L 5.5 -30.078125 C 7.207031 -30.984375 9.128906 -31.695312 11.265625 -32.21875 C 13.398438 -32.738281 15.601562 -33 17.875 -33 Z M 22.5625 -14.984375 L 19.140625 -14.859375 C 16.285156 -14.785156 14.304688 -14.273438 13.203125 -13.328125 C 12.097656 -12.390625 11.546875 -11.148438 11.546875 -9.609375 C 11.546875 -8.253906 11.9375 -7.289062 12.71875 -6.71875 C 13.507812 -6.15625 14.546875 -5.875 15.828125 -5.875 C 17.710938 -5.875 19.304688 -6.429688 20.609375 -7.546875 C 21.910156 -8.660156 22.5625 -10.253906 22.5625 -12.328125 Z M 22.5625 -14.984375 "/></g></g></g><g fill="#000000" fill-opacity="1"><g transform="translate(439.011829, 336.561698)"><g><path d="M 27.1875 -9.609375 C 27.1875 -7.410156 26.671875 -5.550781 25.640625 -4.03125 C 24.609375 -2.519531 23.070312 -1.375 21.03125 -0.59375 C 18.988281 0.1875 16.441406 0.578125 13.390625 0.578125 C 11.128906 0.578125 9.191406 0.429688 7.578125 0.140625 C 5.972656 -0.148438 4.351562 -0.628906 2.71875 -1.296875 L 2.71875 -8.59375 C 4.46875 -7.800781 6.347656 -7.148438 8.359375 -6.640625 C 10.378906 -6.128906 12.15625 -5.875 13.6875 -5.875 C 15.394531 -5.875 16.617188 -6.128906 17.359375 -6.640625 C 18.109375 -7.148438 18.484375 -7.816406 18.484375 -8.640625 C 18.484375 -9.179688 18.332031 -9.671875 18.03125 -10.109375 C 17.726562 -10.546875 17.085938 -11.035156 16.109375 -11.578125 C 15.128906 -12.128906 13.585938 -12.847656 11.484375 -13.734375 C 9.460938 -14.585938 7.800781 -15.445312 6.5 -16.3125 C 5.195312 -17.175781 4.226562 -18.203125 3.59375 -19.390625 C 2.96875 -20.578125 2.65625 -22.085938 2.65625 -23.921875 C 2.65625 -26.910156 3.816406 -29.160156 6.140625 -30.671875 C 8.460938 -32.179688 11.570312 -32.9375 15.46875 -32.9375 C 17.476562 -32.9375 19.394531 -32.734375 21.21875 -32.328125 C 23.039062 -31.929688 24.914062 -31.285156 26.84375 -30.390625 L 24.171875 -24.03125 C 22.578125 -24.726562 21.070312 -25.296875 19.65625 -25.734375 C 18.238281 -26.179688 16.796875 -26.40625 15.328125 -26.40625 C 14.035156 -26.40625 13.0625 -26.226562 12.40625 -25.875 C 11.75 -25.53125 11.421875 -25.003906 11.421875 -24.296875 C 11.421875 -23.773438 11.585938 -23.3125 11.921875 -22.90625 C 12.265625 -22.5 12.921875 -22.050781 13.890625 -21.5625 C 14.867188 -21.070312 16.300781 -20.441406 18.1875 -19.671875 C 20.019531 -18.921875 21.609375 -18.132812 22.953125 -17.3125 C 24.304688 -16.488281 25.347656 -15.472656 26.078125 -14.265625 C 26.816406 -13.066406 27.1875 -11.515625 27.1875 -9.609375 Z M 27.1875 -9.609375 "/></g></g></g><g fill="#000000" fill-opacity="1"><g transform="translate(468.451562, 336.561698)"><g><path d="M 18.25 -6.453125 C 19.21875 -6.453125 20.15625 -6.546875 21.0625 -6.734375 C 21.976562 -6.929688 22.890625 -7.175781 23.796875 -7.46875 L 23.796875 -0.890625 C 22.859375 -0.472656 21.6875 -0.125 20.28125 0.15625 C 18.882812 0.4375 17.359375 0.578125 15.703125 0.578125 C 13.773438 0.578125 12.046875 0.265625 10.515625 -0.359375 C 8.984375 -0.984375 7.773438 -2.070312 6.890625 -3.625 C 6.015625 -5.175781 5.578125 -7.34375 5.578125 -10.125 L 5.578125 -25.71875 L 1.359375 -25.71875 L 1.359375 -29.4375 L 6.21875 -32.390625 L 8.765625 -39.21875 L 14.40625 -39.21875 L 14.40625 -32.34375 L 23.453125 -32.34375 L 23.453125 -25.71875 L 14.40625 -25.71875 L 14.40625 -10.125 C 14.40625 -8.882812 14.753906 -7.960938 15.453125 -7.359375 C 16.160156 -6.753906 17.09375 -6.453125 18.25 -6.453125 Z M 18.25 -6.453125 "/></g></g></g><g fill="#000000" fill-opacity="1"><g transform="translate(494.16074, 336.561698)"><g><path d="M 17.96875 -32.9375 C 20.945312 -32.9375 23.515625 -32.363281 25.671875 -31.21875 C 27.835938 -30.070312 29.507812 -28.410156 30.6875 -26.234375 C 31.863281 -24.054688 32.453125 -21.394531 32.453125 -18.25 L 32.453125 -13.96875 L 11.59375 -13.96875 C 11.695312 -11.476562 12.445312 -9.523438 13.84375 -8.109375 C 15.238281 -6.691406 17.179688 -5.984375 19.671875 -5.984375 C 21.734375 -5.984375 23.617188 -6.195312 25.328125 -6.625 C 27.046875 -7.050781 28.8125 -7.6875 30.625 -8.53125 L 30.625 -1.703125 C 29.03125 -0.910156 27.359375 -0.332031 25.609375 0.03125 C 23.867188 0.394531 21.753906 0.578125 19.265625 0.578125 C 16.023438 0.578125 13.15625 -0.0195312 10.65625 -1.21875 C 8.15625 -2.414062 6.195312 -4.238281 4.78125 -6.6875 C 3.363281 -9.132812 2.65625 -12.21875 2.65625 -15.9375 C 2.65625 -19.71875 3.296875 -22.863281 4.578125 -25.375 C 5.859375 -27.894531 7.644531 -29.785156 9.9375 -31.046875 C 12.238281 -32.304688 14.914062 -32.9375 17.96875 -32.9375 Z M 18.015625 -26.671875 C 16.296875 -26.671875 14.875 -26.117188 13.75 -25.015625 C 12.625 -23.921875 11.972656 -22.195312 11.796875 -19.84375 L 24.171875 -19.84375 C 24.160156 -21.15625 23.925781 -22.320312 23.46875 -23.34375 C 23.019531 -24.363281 22.34375 -25.171875 21.4375 -25.765625 C 20.539062 -26.367188 19.398438 -26.671875 18.015625 -26.671875 Z M 18.015625 -26.671875 "/></g></g></g><g fill="#000000" fill-opacity="1"><g transform="translate(529.152956, 336.561698)"><g><path d="M 22.671875 -32.9375 C 23.117188 -32.9375 23.632812 -32.910156 24.21875 -32.859375 C 24.8125 -32.816406 25.289062 -32.757812 25.65625 -32.6875 L 24.984375 -24.40625 C 24.703125 -24.507812 24.296875 -24.582031 23.765625 -24.625 C 23.234375 -24.675781 22.773438 -24.703125 22.390625 -24.703125 C 21.253906 -24.703125 20.148438 -24.554688 19.078125 -24.265625 C 18.003906 -23.972656 17.039062 -23.503906 16.1875 -22.859375 C 15.34375 -22.210938 14.675781 -21.363281 14.1875 -20.3125 C 13.695312 -19.257812 13.453125 -17.972656 13.453125 -16.453125 L 13.453125 0 L 4.625 0 L 4.625 -32.34375 L 11.3125 -32.34375 L 12.609375 -26.890625 L 13.046875 -26.890625 C 13.679688 -27.992188 14.472656 -29.003906 15.421875 -29.921875 C 16.378906 -30.835938 17.46875 -31.566406 18.6875 -32.109375 C 19.914062 -32.660156 21.242188 -32.9375 22.671875 -32.9375 Z M 22.671875 -32.9375 "/></g></g></g><g fill="#000000" fill-opacity="1"><g transform="translate(556.0478, 336.561698)"><g><path d="M 27.1875 -9.609375 C 27.1875 -7.410156 26.671875 -5.550781 25.640625 -4.03125 C 24.609375 -2.519531 23.070312 -1.375 21.03125 -0.59375 C 18.988281 0.1875 16.441406 0.578125 13.390625 0.578125 C 11.128906 0.578125 9.191406 0.429688 7.578125 0.140625 C 5.972656 -0.148438 4.351562 -0.628906 2.71875 -1.296875 L 2.71875 -8.59375 C 4.46875 -7.800781 6.347656 -7.148438 8.359375 -6.640625 C 10.378906 -6.128906 12.15625 -5.875 13.6875 -5.875 C 15.394531 -5.875 16.617188 -6.128906 17.359375 -6.640625 C 18.109375 -7.148438 18.484375 -7.816406 18.484375 -8.640625 C 18.484375 -9.179688 18.332031 -9.671875 18.03125 -10.109375 C 17.726562 -10.546875 17.085938 -11.035156 16.109375 -11.578125 C 15.128906 -12.128906 13.585938 -12.847656 11.484375 -13.734375 C 9.460938 -14.585938 7.800781 -15.445312 6.5 -16.3125 C 5.195312 -17.175781 4.226562 -18.203125 3.59375 -19.390625 C 2.96875 -20.578125 2.65625 -22.085938 2.65625 -23.921875 C 2.65625 -26.910156 3.816406 -29.160156 6.140625 -30.671875 C 8.460938 -32.179688 11.570312 -32.9375 15.46875 -32.9375 C 17.476562 -32.9375 19.394531 -32.734375 21.21875 -32.328125 C 23.039062 -31.929688 24.914062 -31.285156 26.84375 -30.390625 L 24.171875 -24.03125 C 22.578125 -24.726562 21.070312 -25.296875 19.65625 -25.734375 C 18.238281 -26.179688 16.796875 -26.40625 15.328125 -26.40625 C 14.035156 -26.40625 13.0625 -26.226562 12.40625 -25.875 C 11.75 -25.53125 11.421875 -25.003906 11.421875 -24.296875 C 11.421875 -23.773438 11.585938 -23.3125 11.921875 -22.90625 C 12.265625 -22.5 12.921875 -22.050781 13.890625 -21.5625 C 14.867188 -21.070312 16.300781 -20.441406 18.1875 -19.671875 C 20.019531 -18.921875 21.609375 -18.132812 22.953125 -17.3125 C 24.304688 -16.488281 25.347656 -15.472656 26.078125 -14.265625 C 26.816406 -13.066406 27.1875 -11.515625 27.1875 -9.609375 Z M 27.1875 -9.609375 "/></g></g></g><g fill="#000000" fill-opacity="1"><g transform="translate(241.639673, 417.092375)"><g><path d="M 57.265625 -42.28125 L 46.515625 0 L 36.296875 0 L 30.578125 -22.21875 C 30.453125 -22.632812 30.289062 -23.273438 30.09375 -24.140625 C 29.90625 -25.015625 29.707031 -25.96875 29.5 -27 C 29.289062 -28.03125 29.101562 -29.003906 28.9375 -29.921875 C 28.769531 -30.835938 28.660156 -31.566406 28.609375 -32.109375 C 28.546875 -31.566406 28.429688 -30.84375 28.265625 -29.9375 C 28.109375 -29.03125 27.925781 -28.066406 27.71875 -27.046875 C 27.519531 -26.023438 27.320312 -25.066406 27.125 -24.171875 C 26.9375 -23.285156 26.785156 -22.613281 26.671875 -22.15625 L 20.96875 0 L 10.78125 0 L 0 -42.28125 L 8.828125 -42.28125 L 14.234375 -19.203125 C 14.390625 -18.503906 14.566406 -17.671875 14.765625 -16.703125 C 14.960938 -15.742188 15.160156 -14.738281 15.359375 -13.6875 C 15.566406 -12.644531 15.753906 -11.632812 15.921875 -10.65625 C 16.085938 -9.6875 16.207031 -8.84375 16.28125 -8.125 C 16.375 -8.851562 16.5 -9.703125 16.65625 -10.671875 C 16.8125 -11.648438 16.976562 -12.644531 17.15625 -13.65625 C 17.34375 -14.675781 17.53125 -15.617188 17.71875 -16.484375 C 17.914062 -17.347656 18.09375 -18.050781 18.25 -18.59375 L 24.40625 -42.28125 L 32.890625 -42.28125 L 39.046875 -18.59375 C 39.179688 -18.070312 39.335938 -17.375 39.515625 -16.5 C 39.703125 -15.625 39.890625 -14.675781 40.078125 -13.65625 C 40.273438 -12.632812 40.457031 -11.632812 40.625 -10.65625 C 40.789062 -9.6875 40.910156 -8.84375 40.984375 -8.125 C 41.117188 -9.09375 41.304688 -10.265625 41.546875 -11.640625 C 41.785156 -13.015625 42.046875 -14.382812 42.328125 -15.75 C 42.609375 -17.125 42.851562 -18.273438 43.0625 -19.203125 L 48.453125 -42.28125 Z M 57.265625 -42.28125 "/></g></g></g><g fill="#000000" fill-opacity="1"><g transform="translate(298.899664, 417.092375)"><g><path d="M 17.96875 -32.9375 C 20.945312 -32.9375 23.515625 -32.363281 25.671875 -31.21875 C 27.835938 -30.070312 29.507812 -28.410156 30.6875 -26.234375 C 31.863281 -24.054688 32.453125 -21.394531 32.453125 -18.25 L 32.453125 -13.96875 L 11.59375 -13.96875 C 11.695312 -11.476562 12.445312 -9.523438 13.84375 -8.109375 C 15.238281 -6.691406 17.179688 -5.984375 19.671875 -5.984375 C 21.734375 -5.984375 23.617188 -6.195312 25.328125 -6.625 C 27.046875 -7.050781 28.8125 -7.6875 30.625 -8.53125 L 30.625 -1.703125 C 29.03125 -0.910156 27.359375 -0.332031 25.609375 0.03125 C 23.867188 0.394531 21.753906 0.578125 19.265625 0.578125 C 16.023438 0.578125 13.15625 -0.0195312 10.65625 -1.21875 C 8.15625 -2.414062 6.195312 -4.238281 4.78125 -6.6875 C 3.363281 -9.132812 2.65625 -12.21875 2.65625 -15.9375 C 2.65625 -19.71875 3.296875 -22.863281 4.578125 -25.375 C 5.859375 -27.894531 7.644531 -29.785156 9.9375 -31.046875 C 12.238281 -32.304688 14.914062 -32.9375 17.96875 -32.9375 Z M 18.015625 -26.671875 C 16.296875 -26.671875 14.875 -26.117188 13.75 -25.015625 C 12.625 -23.921875 11.972656 -22.195312 11.796875 -19.84375 L 24.171875 -19.84375 C 24.160156 -21.15625 23.925781 -22.320312 23.46875 -23.34375 C 23.019531 -24.363281 22.34375 -25.171875 21.4375 -25.765625 C 20.539062 -26.367188 19.398438 -26.671875 18.015625 -26.671875 Z M 18.015625 -26.671875 "/></g></g></g><g fill="#000000" fill-opacity="1"><g transform="translate(333.89188, 417.092375)"><g><path d="M 13.453125 -45 L 13.453125 -34.53125 C 13.453125 -33.320312 13.414062 -32.117188 13.34375 -30.921875 C 13.28125 -29.722656 13.203125 -28.796875 13.109375 -28.140625 L 13.453125 -28.140625 C 14.296875 -29.472656 15.453125 -30.601562 16.921875 -31.53125 C 18.390625 -32.46875 20.289062 -32.9375 22.625 -32.9375 C 26.25 -32.9375 29.1875 -31.519531 31.4375 -28.6875 C 33.695312 -25.851562 34.828125 -21.695312 34.828125 -16.21875 C 34.828125 -12.539062 34.304688 -9.453125 33.265625 -6.953125 C 32.222656 -4.453125 30.765625 -2.570312 28.890625 -1.3125 C 27.023438 -0.0507812 24.859375 0.578125 22.390625 0.578125 C 20.015625 0.578125 18.140625 0.15625 16.765625 -0.6875 C 15.398438 -1.539062 14.296875 -2.5 13.453125 -3.5625 L 12.84375 -3.5625 L 11.359375 0 L 4.625 0 L 4.625 -45 Z M 19.78125 -25.890625 C 18.238281 -25.890625 17.015625 -25.570312 16.109375 -24.9375 C 15.203125 -24.300781 14.539062 -23.34375 14.125 -22.0625 C 13.707031 -20.789062 13.484375 -19.179688 13.453125 -17.234375 L 13.453125 -16.28125 C 13.453125 -13.132812 13.910156 -10.726562 14.828125 -9.0625 C 15.753906 -7.394531 17.445312 -6.5625 19.90625 -6.5625 C 21.71875 -6.5625 23.15625 -7.398438 24.21875 -9.078125 C 25.289062 -10.753906 25.828125 -13.175781 25.828125 -16.34375 C 25.828125 -19.5 25.285156 -21.878906 24.203125 -23.484375 C 23.128906 -25.085938 21.65625 -25.890625 19.78125 -25.890625 Z M 19.78125 -25.890625 "/></g></g></g><g fill="#000000" fill-opacity="1"><g transform="translate(371.371146, 417.092375)"><g/></g></g><g fill="#000000" fill-opacity="1"><g transform="translate(386.756153, 417.092375)"><g><path d="M 40.40625 -21.546875 C 40.40625 -16.785156 39.492188 -12.804688 37.671875 -9.609375 C 35.847656 -6.421875 33.207031 -4.019531 29.75 -2.40625 C 26.300781 -0.800781 22.148438 0 17.296875 0 L 5.328125 0 L 5.328125 -42.28125 L 18.59375 -42.28125 C 23.03125 -42.28125 26.878906 -41.492188 30.140625 -39.921875 C 33.398438 -38.359375 35.925781 -36.035156 37.71875 -32.953125 C 39.507812 -29.878906 40.40625 -26.078125 40.40625 -21.546875 Z M 31.09375 -21.3125 C 31.09375 -24.4375 30.632812 -27.003906 29.71875 -29.015625 C 28.800781 -31.035156 27.453125 -32.523438 25.671875 -33.484375 C 23.890625 -34.453125 21.6875 -34.9375 19.0625 -34.9375 L 14.28125 -34.9375 L 14.28125 -7.40625 L 18.140625 -7.40625 C 22.515625 -7.40625 25.765625 -8.570312 27.890625 -10.90625 C 30.023438 -13.238281 31.09375 -16.707031 31.09375 -21.3125 Z M 31.09375 -21.3125 "/></g></g></g><g fill="#000000" fill-opacity="1"><g transform="translate(430.59764, 417.092375)"><g><path d="M 17.96875 -32.9375 C 20.945312 -32.9375 23.515625 -32.363281 25.671875 -31.21875 C 27.835938 -30.070312 29.507812 -28.410156 30.6875 -26.234375 C 31.863281 -24.054688 32.453125 -21.394531 32.453125 -18.25 L 32.453125 -13.96875 L 11.59375 -13.96875 C 11.695312 -11.476562 12.445312 -9.523438 13.84375 -8.109375 C 15.238281 -6.691406 17.179688 -5.984375 19.671875 -5.984375 C 21.734375 -5.984375 23.617188 -6.195312 25.328125 -6.625 C 27.046875 -7.050781 28.8125 -7.6875 30.625 -8.53125 L 30.625 -1.703125 C 29.03125 -0.910156 27.359375 -0.332031 25.609375 0.03125 C 23.867188 0.394531 21.753906 0.578125 19.265625 0.578125 C 16.023438 0.578125 13.15625 -0.0195312 10.65625 -1.21875 C 8.15625 -2.414062 6.195312 -4.238281 4.78125 -6.6875 C 3.363281 -9.132812 2.65625 -12.21875 2.65625 -15.9375 C 2.65625 -19.71875 3.296875 -22.863281 4.578125 -25.375 C 5.859375 -27.894531 7.644531 -29.785156 9.9375 -31.046875 C 12.238281 -32.304688 14.914062 -32.9375 17.96875 -32.9375 Z M 18.015625 -26.671875 C 16.296875 -26.671875 14.875 -26.117188 13.75 -25.015625 C 12.625 -23.921875 11.972656 -22.195312 11.796875 -19.84375 L 24.171875 -19.84375 C 24.160156 -21.15625 23.925781 -22.320312 23.46875 -23.34375 C 23.019531 -24.363281 22.34375 -25.171875 21.4375 -25.765625 C 20.539062 -26.367188 19.398438 -26.671875 18.015625 -26.671875 Z M 18.015625 -26.671875 "/></g></g></g><g fill="#000000" fill-opacity="1"><g transform="translate(465.589856, 417.092375)"><g><path d="M 27.1875 -9.609375 C 27.1875 -7.410156 26.671875 -5.550781 25.640625 -4.03125 C 24.609375 -2.519531 23.070312 -1.375 21.03125 -0.59375 C 18.988281 0.1875 16.441406 0.578125 13.390625 0.578125 C 11.128906 0.578125 9.191406 0.429688 7.578125 0.140625 C 5.972656 -0.148438 4.351562 -0.628906 2.71875 -1.296875 L 2.71875 -8.59375 C 4.46875 -7.800781 6.347656 -7.148438 8.359375 -6.640625 C 10.378906 -6.128906 12.15625 -5.875 13.6875 -5.875 C 15.394531 -5.875 16.617188 -6.128906 17.359375 -6.640625 C 18.109375 -7.148438 18.484375 -7.816406 18.484375 -8.640625 C 18.484375 -9.179688 18.332031 -9.671875 18.03125 -10.109375 C 17.726562 -10.546875 17.085938 -11.035156 16.109375 -11.578125 C 15.128906 -12.128906 13.585938 -12.847656 11.484375 -13.734375 C 9.460938 -14.585938 7.800781 -15.445312 6.5 -16.3125 C 5.195312 -17.175781 4.226562 -18.203125 3.59375 -19.390625 C 2.96875 -20.578125 2.65625 -22.085938 2.65625 -23.921875 C 2.65625 -26.910156 3.816406 -29.160156 6.140625 -30.671875 C 8.460938 -32.179688 11.570312 -32.9375 15.46875 -32.9375 C 17.476562 -32.9375 19.394531 -32.734375 21.21875 -32.328125 C 23.039062 -31.929688 24.914062 -31.285156 26.84375 -30.390625 L 24.171875 -24.03125 C 22.578125 -24.726562 21.070312 -25.296875 19.65625 -25.734375 C 18.238281 -26.179688 16.796875 -26.40625 15.328125 -26.40625 C 14.035156 -26.40625 13.0625 -26.226562 12.40625 -25.875 C 11.75 -25.53125 11.421875 -25.003906 11.421875 -24.296875 C 11.421875 -23.773438 11.585938 -23.3125 11.921875 -22.90625 C 12.265625 -22.5 12.921875 -22.050781 13.890625 -21.5625 C 14.867188 -21.070312 16.300781 -20.441406 18.1875 -19.671875 C 20.019531 -18.921875 21.609375 -18.132812 22.953125 -17.3125 C 24.304688 -16.488281 25.347656 -15.472656 26.078125 -14.265625 C 26.816406 -13.066406 27.1875 -11.515625 27.1875 -9.609375 Z M 27.1875 -9.609375 "/></g></g></g><g fill="#000000" fill-opacity="1"><g transform="translate(495.029589, 417.092375)"><g><path d="M 13.453125 -32.34375 L 13.453125 0 L 4.625 0 L 4.625 -32.34375 Z M 9.046875 -45 C 10.359375 -45 11.488281 -44.695312 12.4375 -44.09375 C 13.382812 -43.488281 13.859375 -42.351562 13.859375 -40.6875 C 13.859375 -39.050781 13.382812 -37.921875 12.4375 -37.296875 C 11.488281 -36.671875 10.359375 -36.359375 9.046875 -36.359375 C 7.722656 -36.359375 6.59375 -36.671875 5.65625 -37.296875 C 4.71875 -37.921875 4.25 -39.050781 4.25 -40.6875 C 4.25 -42.351562 4.71875 -43.488281 5.65625 -44.09375 C 6.59375 -44.695312 7.722656 -45 9.046875 -45 Z M 9.046875 -45 "/></g></g></g><g fill="#000000" fill-opacity="1"><g transform="translate(513.104101, 417.092375)"><g><path d="M 14.078125 14.234375 C 9.566406 14.234375 6.117188 13.445312 3.734375 11.875 C 1.359375 10.300781 0.171875 8.097656 0.171875 5.265625 C 0.171875 3.316406 0.773438 1.6875 1.984375 0.375 C 3.203125 -0.9375 4.988281 -1.867188 7.34375 -2.421875 C 6.4375 -2.816406 5.644531 -3.453125 4.96875 -4.328125 C 4.300781 -5.203125 3.96875 -6.128906 3.96875 -7.109375 C 3.96875 -8.347656 4.320312 -9.375 5.03125 -10.1875 C 5.75 -11.007812 6.78125 -11.816406 8.125 -12.609375 C 6.425781 -13.335938 5.082031 -14.507812 4.09375 -16.125 C 3.101562 -17.75 2.609375 -19.660156 2.609375 -21.859375 C 2.609375 -24.210938 3.125 -26.210938 4.15625 -27.859375 C 5.1875 -29.515625 6.6875 -30.773438 8.65625 -31.640625 C 10.632812 -32.503906 13.039062 -32.9375 15.875 -32.9375 C 16.476562 -32.9375 17.171875 -32.898438 17.953125 -32.828125 C 18.742188 -32.753906 19.472656 -32.664062 20.140625 -32.5625 C 20.804688 -32.46875 21.253906 -32.394531 21.484375 -32.34375 L 32.765625 -32.34375 L 32.765625 -27.859375 L 27.703125 -26.546875 C 28.171875 -25.835938 28.519531 -25.078125 28.75 -24.265625 C 28.976562 -23.453125 29.09375 -22.59375 29.09375 -21.6875 C 29.09375 -18.21875 27.882812 -15.515625 25.46875 -13.578125 C 23.050781 -11.640625 19.691406 -10.671875 15.390625 -10.671875 C 14.367188 -10.734375 13.40625 -10.8125 12.5 -10.90625 C 12.050781 -10.5625 11.710938 -10.191406 11.484375 -9.796875 C 11.253906 -9.410156 11.140625 -9.007812 11.140625 -8.59375 C 11.140625 -8.164062 11.316406 -7.8125 11.671875 -7.53125 C 12.023438 -7.25 12.5625 -7.035156 13.28125 -6.890625 C 14.007812 -6.753906 14.914062 -6.6875 16 -6.6875 L 21.484375 -6.6875 C 25.035156 -6.6875 27.738281 -5.921875 29.59375 -4.390625 C 31.457031 -2.867188 32.390625 -0.632812 32.390625 2.3125 C 32.390625 6.09375 30.8125 9.023438 27.65625 11.109375 C 24.507812 13.191406 19.984375 14.234375 14.078125 14.234375 Z M 14.46875 8.46875 C 16.5625 8.46875 18.363281 8.269531 19.875 7.875 C 21.394531 7.476562 22.554688 6.921875 23.359375 6.203125 C 24.171875 5.484375 24.578125 4.617188 24.578125 3.609375 C 24.578125 2.804688 24.34375 2.164062 23.875 1.6875 C 23.40625 1.21875 22.691406 0.882812 21.734375 0.6875 C 20.773438 0.5 19.554688 0.40625 18.078125 0.40625 L 13.5 0.40625 C 12.425781 0.40625 11.457031 0.578125 10.59375 0.921875 C 9.738281 1.273438 9.0625 1.765625 8.5625 2.390625 C 8.0625 3.015625 7.8125 3.738281 7.8125 4.5625 C 7.8125 5.78125 8.394531 6.734375 9.5625 7.421875 C 10.726562 8.117188 12.363281 8.46875 14.46875 8.46875 Z M 15.875 -16.046875 C 17.53125 -16.046875 18.742188 -16.554688 19.515625 -17.578125 C 20.296875 -18.609375 20.6875 -20 20.6875 -21.75 C 20.6875 -23.695312 20.285156 -25.15625 19.484375 -26.125 C 18.679688 -27.101562 17.476562 -27.59375 15.875 -27.59375 C 14.257812 -27.59375 13.046875 -27.101562 12.234375 -26.125 C 11.421875 -25.15625 11.015625 -23.695312 11.015625 -21.75 C 11.015625 -20 11.414062 -18.609375 12.21875 -17.578125 C 13.019531 -16.554688 14.238281 -16.046875 15.875 -16.046875 Z M 15.875 -16.046875 "/></g></g></g><g fill="#000000" fill-opacity="1"><g transform="translate(546.563622, 417.092375)"><g><path d="M 23 -32.9375 C 26.445312 -32.9375 29.21875 -31.992188 31.3125 -30.109375 C 33.414062 -28.234375 34.46875 -25.222656 34.46875 -21.078125 L 34.46875 0 L 25.65625 0 L 25.65625 -18.890625 C 25.65625 -21.203125 25.234375 -22.945312 24.390625 -24.125 C 23.554688 -25.300781 22.242188 -25.890625 20.453125 -25.890625 C 17.753906 -25.890625 15.910156 -24.972656 14.921875 -23.140625 C 13.941406 -21.304688 13.453125 -18.664062 13.453125 -15.21875 L 13.453125 0 L 4.625 0 L 4.625 -32.34375 L 11.359375 -32.34375 L 12.546875 -28.203125 L 13.046875 -28.203125 C 13.734375 -29.316406 14.59375 -30.21875 15.625 -30.90625 C 16.664062 -31.601562 17.816406 -32.113281 19.078125 -32.4375 C 20.335938 -32.769531 21.644531 -32.9375 23 -32.9375 Z M 23 -32.9375 "/></g></g></g></svg>