<?xml version="1.0" encoding="UTF-8"?>
<svg version="1.1" xmlns="http://www.w3.org/2000/svg" width="512" height="512">
<path d="M0 0 C5.26153693 4.43317667 10.21335013 9.11544795 15.00439453 14.05566406 C17.00326345 16.05073285 19.0806593 17.85856084 21.24658203 19.66894531 C26.6358357 24.36837451 31.05572109 28.81120083 32.18408203 36.10644531 C32.40504768 41.23600498 31.09868148 44.9934873 28.05908203 49.10644531 C24.0702511 52.81035974 21.39120019 54.29356219 15.99658203 54.54394531 C15.09810547 54.60453125 14.19962891 54.66511719 13.27392578 54.72753906 C3.19141578 52.77964223 -4.00635994 43.25726342 -10.74755859 36.18261719 C-16.80675298 29.94418616 -23.1948677 23.53026039 -31.69091797 20.98144531 C-43.42458427 21.43274017 -53.60142555 34.69765259 -61.25341797 42.48144531 C-81.86150085 63.3437497 -101.90561524 74.42469351 -131.56982422 74.71582031 C-133.36018446 74.72235328 -135.15055004 74.7275525 -136.94091797 74.73144531 C-139.65876961 74.74792595 -142.3762904 74.77015083 -145.09399414 74.80307007 C-146.7646429 74.82232957 -148.43544271 74.8320765 -150.10620117 74.82998657 C-156.77813438 74.89065488 -163.9275593 75.2013465 -169.37841797 79.41894531 C-175.38226321 85.71566105 -175.07445213 93.82028783 -175.11669922 102.06347656 C-175.1399311 103.83497238 -175.16404971 105.60645675 -175.18896484 107.37792969 C-175.22373195 110.13085233 -175.25324214 112.88336143 -175.2668457 115.63647461 C-175.4004056 138.31494514 -179.3337078 157.68195724 -194.94091797 175.10644531 C-195.59253906 175.83831055 -195.59253906 175.83831055 -196.25732422 176.58496094 C-201.33678545 182.26575115 -206.55922932 187.76895561 -212.01342773 193.09106445 C-222.39569202 203.16895423 -222.39569202 203.16895423 -229.25341797 215.73144531 C-228.03775832 228.86056947 -213.46019882 239.63320021 -204.62841797 248.41894531 C-181.69309145 271.25863084 -175.75484079 290.76361307 -175.40917969 322.66015625 C-175.37520077 325.50959987 -175.3301727 328.35872857 -175.28466797 331.20800781 C-175.27675232 332.49742783 -175.27675232 332.49742783 -175.26867676 333.81289673 C-175.15782558 340.62799739 -174.9411641 347.96262713 -170.62841797 353.54394531 C-164.20813081 359.66561446 -155.83606613 359.24657683 -147.44091797 359.31738281 C-145.56460753 359.34547613 -143.68830558 359.37414072 -141.81201172 359.40332031 C-138.8877001 359.44430849 -135.96354251 359.48123974 -133.0390625 359.5078125 C-118.7412989 359.64862933 -104.71993411 359.83542832 -91.75341797 366.66894531 C-91.08906738 367.00901611 -90.4247168 367.34908691 -89.74023438 367.69946289 C-83.19206954 371.21864687 -78.20194309 375.87272655 -72.94091797 381.10644531 C-71.87112022 381.99794343 -70.79029686 382.87669262 -69.69091797 383.73144531 C-67.47005917 385.64945973 -65.70757152 387.45598219 -63.81591797 389.66894531 C-55.44148774 399.41138401 -46.91991924 409.05999845 -34.44091797 413.29394531 C-24.62942948 412.76832986 -17.61209676 405.64661908 -10.94091797 399.10644531 C-10.23370605 398.41977783 -10.23370605 398.41977783 -9.51220703 397.71923828 C-3.1048032 391.54540916 -3.1048032 391.54540916 2.74658203 384.85644531 C14.22571236 371.20558762 30.42345955 362.35238872 48.05908203 360.10644531 C55.31420228 359.56954715 62.60022788 359.59142214 69.87158203 359.54394531 C72.75224258 359.51998619 75.63261615 359.49167578 78.5131073 359.4521637 C80.28946401 359.4282093 82.06597093 359.41302574 83.84248352 359.40855408 C91.01104221 359.31895761 99.416617 359.06910202 104.85546875 353.7890625 C111.37798637 344.6707681 109.51766345 330.41600959 109.55908203 319.79394531 C109.67948595 289.0883287 109.67948595 289.0883287 116.62158203 275.91894531 C116.96310303 275.25314453 117.30462402 274.58734375 117.65649414 273.90136719 C120.58721927 268.4560602 124.11462612 264.13677675 128.46923828 259.73144531 C130.5386553 257.63393666 132.45511142 255.5144469 134.37158203 253.28222656 C137.41556828 249.77224431 140.62713139 246.50740091 143.95922852 243.2722168 C155.76083098 232.2664791 155.76083098 232.2664791 163.24658203 218.29394531 C162.52587972 206.0420061 148.27992332 195.12424615 140 187.20874023 C135.11974124 182.4677114 130.80624008 178.15538269 129.52783203 171.22753906 C129.59594685 165.37817928 129.90601096 161.58739042 134.05908203 157.10644531 C138.7041044 153.1095656 143.03727739 151.88380817 149.05908203 152.10644531 C158.44065849 154.49448296 165.33564764 162.98934165 171.35986328 170.16503906 C173.0987472 172.15176391 174.94862721 173.92363749 176.87158203 175.73144531 C187.93125176 186.70504757 196.97993258 200.76769696 197.30908203 216.73144531 C196.9899606 238.01684511 182.8381604 252.63516648 168.55517578 266.61425781 C165.79858085 269.36653883 163.26256449 272.24485086 160.74267578 275.21191406 C158.89896948 277.28661837 156.93698462 279.18559832 154.93408203 281.10644531 C147.07545004 288.90415767 143.89954732 296.96822689 143.75697327 308.00598145 C143.75483322 308.83319702 143.75269318 309.6604126 143.75048828 310.51269531 C143.72530376 312.32780235 143.69990614 314.14290644 143.67431641 315.95800781 C143.64580486 318.77017261 143.62174493 321.58228578 143.6027832 324.39453125 C143.36254068 354.31132538 143.36254068 354.31132538 136.68408203 366.73144531 C136.11947266 367.81683594 135.55486328 368.90222656 134.97314453 370.02050781 C127.57013924 381.95596533 116.22022484 388.39192059 102.73022461 391.67285156 C91.52309754 393.91167834 79.98192506 393.46427285 68.60131836 393.48730469 C53.8542804 393.53737527 42.8149899 393.70970048 31.68017578 404.453125 C30.81521484 405.3287207 29.95025391 406.20431641 29.05908203 407.10644531 C28.07115002 408.09279783 27.08285424 409.07878612 26.09423828 410.06445312 C22.35251695 413.81515765 18.63807814 417.59268986 14.9453125 421.39160156 C1.72963325 434.96424453 -13.12145608 446.75092028 -32.94091797 447.48144531 C-57.56650336 446.53733341 -73.5145697 428.93393769 -89.40063477 412.37939453 C-101.50558348 399.41336867 -101.50558348 399.41336867 -117.94671631 393.96841431 C-118.65346497 393.96191864 -119.36021362 393.95542297 -120.08837891 393.94873047 C-120.89732605 393.93846832 -121.70627319 393.92820618 -122.53973389 393.91763306 C-123.40946838 393.91033173 -124.27920288 393.9030304 -125.17529297 393.89550781 C-127.04899895 393.86739456 -128.92269673 393.83872993 -130.79638672 393.80957031 C-133.72492846 393.76870015 -136.65332445 393.73178817 -139.58203125 393.70507812 C-159.45659488 393.50846808 -178.90570671 392.73309832 -194.37841797 378.54394531 C-209.7775517 361.75179784 -209.36658627 340.29821205 -209.45214844 318.92626953 C-209.56230838 299.8352175 -212.1939727 289.68660195 -225.94091797 276.04394531 C-226.98777284 275.01658105 -228.03464741 273.98923687 -229.08154297 272.96191406 C-231.99109115 270.08935166 -234.67003542 267.06182471 -237.31201172 263.94238281 C-239.03246472 262.00326313 -240.86719486 260.25891997 -242.75341797 258.48144531 C-253.8130877 247.50784305 -262.86176852 233.44519367 -263.19091797 217.48144531 C-262.88474484 197.05969774 -249.81964726 182.61339989 -235.98779297 169.14941406 C-233.42464172 166.59115433 -231.09286355 163.87610329 -228.75341797 161.11425781 C-226.76910866 158.91612207 -224.62455888 156.98065709 -222.44091797 154.98144531 C-213.25725524 145.95503709 -209.84142332 134.75319875 -209.72998047 122.17675781 C-209.70187493 120.39289505 -209.67321031 118.60904103 -209.64404297 116.82519531 C-209.60313754 114.04362591 -209.56621287 111.26221298 -209.53955078 108.48046875 C-209.24427136 80.0623699 -209.24427136 80.0623699 -202.50341797 67.48144531 C-201.63910156 65.82242188 -201.63910156 65.82242188 -200.75732422 64.12988281 C-194.05743172 52.97780369 -183.3140124 46.54267606 -170.94091797 43.10644531 C-159.49802296 40.4092251 -147.80958041 40.7317981 -136.12597656 40.65014648 C-117.07581976 40.49183011 -104.5848425 37.22497241 -90.62841797 23.48144531 C-89.15496147 22.0629551 -87.68099789 20.64499144 -86.20654297 19.22753906 C-85.48789063 18.53128418 -84.76923828 17.8350293 -84.02880859 17.11767578 C-79.98883826 13.22603925 -75.8568189 9.43519964 -71.71435547 5.65332031 C-70.07258158 4.14566316 -68.44594948 2.6207459 -66.85498047 1.05957031 C-47.33673104 -17.55276881 -20.32137242 -16.62818901 0 0 Z " fill="#7159FE" transform="translate(288.94091796875,38.8935546875)"/>
<path d="M0 0 C4.8846525 2.26787438 7.73212562 5.1153475 10 10 C10.73355672 15.44927851 11.07202874 20.08691827 8.33203125 24.9765625 C5.77546789 28.29110193 3.06752785 31.34260412 0.1875 34.375 C-0.89140079 35.52661744 -1.96953056 36.67895771 -3.046875 37.83203125 C-3.56056641 38.38068848 -4.07425781 38.9293457 -4.60351562 39.49462891 C-6.29513249 41.31814456 -7.93668614 43.18018639 -9.5625 45.0625 C-12.47797917 48.43419107 -15.48075642 51.72142867 -18.5 55 C-21.53890177 58.30026876 -24.561561 61.60949347 -27.5 65 C-30.9067735 68.9308925 -34.43002785 72.75196573 -37.953125 76.578125 C-40.50555143 79.35494057 -43.02983288 82.14980717 -45.5 85 C-48.9067735 88.9308925 -52.43002785 92.75196573 -55.953125 96.578125 C-58.50555143 99.35494057 -61.02983288 102.14980717 -63.5 105 C-66.9067735 108.9308925 -70.43002785 112.75196573 -73.953125 116.578125 C-76.50555143 119.35494057 -79.02983288 122.14980717 -81.5 125 C-84.9067735 128.9308925 -88.43002785 132.75196573 -91.953125 136.578125 C-94.50555143 139.35494057 -97.02983288 142.14980717 -99.5 145 C-102.9067735 148.9308925 -106.43002785 152.75196573 -109.953125 156.578125 C-112.50555143 159.35494057 -115.02983288 162.14980717 -117.5 165 C-120.9067735 168.9308925 -124.43002785 172.75196573 -127.953125 176.578125 C-130.50555143 179.35494057 -133.02983288 182.14980717 -135.5 185 C-138.9067735 188.9308925 -142.43002785 192.75196573 -145.953125 196.578125 C-148.50555143 199.35494057 -151.02983288 202.14980717 -153.5 205 C-156.9067735 208.9308925 -160.43002785 212.75196573 -163.953125 216.578125 C-166.50555143 219.35494057 -169.02983288 222.14980717 -171.5 225 C-174.50273425 228.45241909 -177.55111591 231.8609507 -180.625 235.25 C-181.08068359 235.75789062 -181.53636719 236.26578125 -182.00585938 236.7890625 C-189.84295533 245.38825632 -189.84295533 245.38825632 -195.875 245.9375 C-196.67679687 246.02902344 -197.47859375 246.12054688 -198.3046875 246.21484375 C-206.16499827 245.58829724 -210.75258885 240.81650431 -216.01489258 235.47094727 C-216.78323425 234.70640228 -217.55157593 233.9418573 -218.34320068 233.15414429 C-220.87017689 230.63455353 -223.3825036 228.10089404 -225.89453125 225.56640625 C-227.65020475 223.80834753 -229.40661933 222.05102859 -231.16374207 220.29441833 C-234.83894794 216.61608808 -238.50734766 212.93114714 -242.1706543 209.2409668 C-246.86929646 204.5082957 -251.58101719 199.78897699 -256.2974596 195.07405186 C-259.92252447 191.44844358 -263.5423567 187.81764958 -267.16043663 184.18507195 C-268.89640938 182.44273104 -270.63359947 180.70160217 -272.37201881 178.96170235 C-274.79711955 176.53227181 -277.21552415 174.09637362 -279.63208008 171.65844727 C-280.35260056 170.93883316 -281.07312103 170.21921906 -281.81547546 169.47779846 C-282.47282684 168.81191711 -283.13017822 168.14603577 -283.80744934 167.4599762 C-284.37908719 166.88498666 -284.95072504 166.30999712 -285.53968525 165.71758366 C-289.12538367 161.50017984 -289.37634047 157.83822011 -289.25 152.46875 C-288.77141667 147.74273965 -287.01936591 144.96571507 -283.625 141.75 C-278.70281478 138.46854319 -274.96074619 137.39382242 -269 138 C-263.05169321 140.20301081 -258.77508284 143.6566327 -254.40039062 148.14550781 C-253.79450104 148.75081329 -253.18861145 149.35611877 -252.56436157 149.97976685 C-250.5853468 151.96154451 -248.62084191 153.95705769 -246.65625 155.953125 C-245.27850656 157.33833718 -243.89987105 158.72266262 -242.52038574 160.10614014 C-238.90792837 163.73380379 -235.3076502 167.37332106 -231.70983887 171.01550293 C-228.03003351 174.73636893 -224.33875004 178.44580989 -220.6484375 182.15625 C-213.42105967 189.42641034 -206.20650632 196.70915449 -199 204 C-198.21608887 203.21536377 -197.43217773 202.43072754 -196.62451172 201.62231445 C-195.0911832 200.09026965 -193.55408213 198.56195127 -192.0078125 197.04296875 C-188.15807225 193.24913759 -184.50456672 189.36228809 -180.98046875 185.265625 C-178.53394232 182.46683737 -176.01923279 179.73310183 -173.5 177 C-170.46093308 173.69988699 -167.43843486 170.39050176 -164.5 167 C-161.0932265 163.0691075 -157.56997215 159.24803427 -154.046875 155.421875 C-151.49444857 152.64505943 -148.97016712 149.85019283 -146.5 147 C-143.0932265 143.0691075 -139.56997215 139.24803427 -136.046875 135.421875 C-133.49444857 132.64505943 -130.97016712 129.85019283 -128.5 127 C-125.0932265 123.0691075 -121.56997215 119.24803427 -118.046875 115.421875 C-115.49444857 112.64505943 -112.97016712 109.85019283 -110.5 107 C-107.0932265 103.0691075 -103.56997215 99.24803427 -100.046875 95.421875 C-97.49444857 92.64505943 -94.97016712 89.85019283 -92.5 87 C-89.0932265 83.0691075 -85.56997215 79.24803427 -82.046875 75.421875 C-79.49444857 72.64505943 -76.97016712 69.85019283 -74.5 67 C-71.0932265 63.0691075 -67.56997215 59.24803427 -64.046875 55.421875 C-61.49444857 52.64505943 -58.97016712 49.85019283 -56.5 47 C-53.0932265 43.0691075 -49.56997215 39.24803427 -46.046875 35.421875 C-43.49444857 32.64505943 -40.97016712 29.85019283 -38.5 27 C-35.09841983 23.0750998 -31.58448516 19.25589501 -28.06005859 15.44165039 C-24.81237417 11.91817679 -21.67439365 8.32354201 -18.6328125 4.62109375 C-13.13504485 -0.83721624 -7.3656573 -0.88947558 0 0 Z " fill="#6E5EFE" transform="translate(454,48)"/>
</svg>
