<?xml version="1.0" encoding="UTF-8"?>
<svg version="1.1" xmlns="http://www.w3.org/2000/svg" width="512" height="512">
<path d="M0 0 C0.73927734 0.16628906 1.47855469 0.33257812 2.24023438 0.50390625 C28.81790507 6.66353808 52.25800972 20.31009071 72 39 C72.88429688 39.81984375 73.76859375 40.6396875 74.6796875 41.484375 C101.34152033 67.01326876 117.18206136 104.72116847 118.28515625 141.46484375 C118.56789007 155.50445947 118.3303507 169.30163821 115 183 C114.83371094 183.72364746 114.66742188 184.44729492 114.49609375 185.19287109 C108.27568403 211.80816122 94.73891383 235.20624665 76 255 C75.18015625 255.88429688 74.3603125 256.76859375 73.515625 257.6796875 C53.68897484 278.38621859 27.57087161 291.08839794 0 298 C-0.98516602 298.24991699 -0.98516602 298.24991699 -1.99023438 298.50488281 C-22.64077244 303.46717629 -47.42034391 303.0431574 -68 298 C-68.72219727 297.83371094 -69.44439453 297.66742188 -70.18847656 297.49609375 C-79.08447705 295.41740908 -87.50225002 292.59633058 -95.875 288.9375 C-96.63039062 288.60919189 -97.38578125 288.28088379 -98.1640625 287.94262695 C-102.08542549 286.1514478 -105.33022345 284.511783 -108 281 C-108.72991469 278.25208587 -108.54686219 275.77988279 -108 273 C-106.5 270.5 -106.5 270.5 -104 269 C-97.39997561 268.4077816 -93.20636608 269.87313664 -87.3125 272.6875 C-72.92254003 279.14107522 -57.62615982 282.24041562 -42 284 C-42.0314209 283.16807129 -42.0314209 283.16807129 -42.06347656 282.31933594 C-42.14683548 279.79640977 -42.19871868 277.27377351 -42.25 274.75 C-42.28351563 273.87730469 -42.31703125 273.00460937 -42.3515625 272.10546875 C-42.45001094 265.65709563 -42.45001094 265.65709563 -40.234375 262.421875 C-37.90003141 260.93638363 -36.73681574 260.45723725 -34 260.5 C-33.01 260.48453125 -33.01 260.48453125 -32 260.46875 C-28.87031296 261.30007312 -27.84110344 262.31166312 -26 265 C-25.51336631 268.26437508 -25.62361126 271.45903166 -25.75 274.75 C-25.76804687 275.63816406 -25.78609375 276.52632813 -25.8046875 277.44140625 C-25.85172626 279.62870848 -25.91742991 281.81379816 -26 284 C4.03422755 280.08696921 30.65228178 270.70286088 54 251 C53.43732422 250.34644531 53.43732422 250.34644531 52.86328125 249.6796875 C51.79306823 248.43425068 50.72690319 247.18532793 49.6640625 245.93359375 C48.63777804 244.74108011 47.59411622 243.56297699 46.5234375 242.41015625 C43.47141375 239.04579088 42 236.58805153 42 232 C43.23643403 229.13667909 44.33152539 227.50711867 46.8125 225.625 C50.08414725 224.69024364 51.72917881 224.93069307 55 226 C57.12020224 227.59119304 59.04426852 229.29531245 60.97265625 231.11328125 C63.22135416 233.20600011 65.5846338 235.1037073 68 237 C79.34593449 224.31118921 87.36973078 210.01775957 93 194 C93.54914063 192.52466797 93.54914063 192.52466797 94.109375 191.01953125 C97.88035539 180.0401768 99.26035348 168.43775633 101 157 C100.44538086 157.02094727 99.89076172 157.04189453 99.31933594 157.06347656 C96.79640977 157.14683548 94.27377351 157.19871868 91.75 157.25 C90.87730469 157.28351563 90.00460937 157.31703125 89.10546875 157.3515625 C82.65709563 157.45001094 82.65709563 157.45001094 79.421875 155.234375 C77.93638363 152.90003141 77.45723725 151.73681574 77.5 149 C77.48453125 148.01 77.48453125 148.01 77.46875 147 C78.30007312 143.87031296 79.31166312 142.84110344 82 141 C85.26437508 140.51336631 88.45903166 140.62361126 91.75 140.75 C92.63816406 140.76804688 93.52632812 140.78609375 94.44140625 140.8046875 C96.62870848 140.85172626 98.81379816 140.91742991 101 141 C96.27196541 110.75100516 88.05773563 84.7682417 68 61 C67.56429687 61.37511719 67.12859375 61.75023437 66.6796875 62.13671875 C65.43425068 63.20693177 64.18532793 64.27309681 62.93359375 65.3359375 C61.74108011 66.36222196 60.56297699 67.40588378 59.41015625 68.4765625 C56.04579088 71.52858625 53.58805153 73 49 73 C46.13667909 71.76356597 44.50711867 70.66847461 42.625 68.1875 C41.69024364 64.91585275 41.93069307 63.27082119 43 60 C45.14098099 57.1472269 47.55886274 54.59570708 50 52 C51.34592097 50.34348188 52.6859849 48.68193932 54 47 C32.27062004 25.99274445 3.01655741 18.15001219 -26 14 C-25.9685791 14.83192871 -25.9685791 14.83192871 -25.93652344 15.68066406 C-25.85316452 18.20359023 -25.80128132 20.72622649 -25.75 23.25 C-25.71648437 24.12269531 -25.68296875 24.99539062 -25.6484375 25.89453125 C-25.54998906 32.34290437 -25.54998906 32.34290437 -27.765625 35.578125 C-30.09996859 37.06361637 -31.26318426 37.54276275 -34 37.5 C-34.66 37.5103125 -35.32 37.520625 -36 37.53125 C-39.12968704 36.69992688 -40.15889656 35.68833688 -42 33 C-42.48663369 29.73562492 -42.37638874 26.54096834 -42.25 23.25 C-42.23195313 22.36183594 -42.21390625 21.47367188 -42.1953125 20.55859375 C-42.14827374 18.37129152 -42.08257009 16.18620184 -42 14 C-58.64908209 16.45857562 -74.08738964 19.37352499 -89.5 26.3125 C-94.71929357 28.61303145 -98.33910802 30.04831333 -104 29 C-106.5 27.5 -106.5 27.5 -108 25 C-108.54686219 22.22011721 -108.72991469 19.74791413 -108 17 C-97.72808919 4.1107273 -71.06624607 -0.55932717 -55.51171875 -2.53125 C-37.19261221 -4.35866135 -17.96311173 -4.16678574 0 0 Z " fill="#000000" transform="translate(338,107)"/>
<path d="M0 0 C2.85695513 1.71417308 3.01592889 3.05628208 3.9375 6.3125 C4.02673178 11.57717506 1.65907324 14.22768482 -1.80093384 17.92385864 C-4.01371207 20.14618331 -6.26080232 22.32831525 -8.51953125 24.50390625 C-10.19783439 26.14720578 -11.8755517 27.79110379 -13.55273438 29.43554688 C-16.19116253 32.01183054 -18.8339076 34.58316503 -21.48706055 37.14428711 C-24.05295999 39.6258334 -26.59984858 42.12563358 -29.14453125 44.62890625 C-29.94647415 45.39360733 -30.74841705 46.15830841 -31.57466125 46.94618225 C-32.30259384 47.66720627 -33.03052643 48.38823029 -33.78051758 49.13110352 C-34.4279744 49.75920425 -35.07543121 50.38730499 -35.74250793 51.03443909 C-37.2662253 52.97289421 -37.2662253 52.97289421 -36.76371765 55.55430603 C-36.19497178 57.37563143 -35.60338198 59.18985407 -35 61 C-34.10483792 72.04788647 -33.96636524 81.78550518 -41 91 C-48.07261434 98.26799042 -56.68946227 101.68447311 -66.75 102.1875 C-72.36677815 102.12355186 -77.69518224 100.76827259 -83 99 C-84.89562622 100.41294577 -84.89562622 100.41294577 -86.75 102.375 C-89.55465396 104.94293087 -90.97715774 105.99264402 -94.6875 107.1875 C-98 107 -98 107 -100.875 105.5 C-103.66441154 102.21833937 -104.07402072 100.29320173 -104 96 C-102.35674505 92.9482408 -100.81211726 90.70010108 -98.1875 88.4375 C-97.795625 87.963125 -97.40375 87.48875 -97 87 C-97.28736849 84.12631508 -98.08596715 81.74209856 -99 79 C-99.89458588 67.95922494 -100.04017423 58.20416221 -93 49 C-85.65906779 41.57927505 -77.54294607 38.32178423 -67.1875 37.8125 C-61.59597978 37.87701754 -56.2803897 39.2398701 -51 41 C-50.5077594 40.50331818 -50.0155188 40.00663635 -49.50836182 39.49490356 C-44.86433705 34.81077369 -40.21548956 30.13149066 -35.56119156 25.45756721 C-33.16864816 23.05459495 -30.77799745 20.64980136 -28.39160156 18.24072266 C-25.64683708 15.47003364 -22.89396309 12.70748284 -20.140625 9.9453125 C-19.28631897 9.0806839 -18.43201294 8.2160553 -17.55181885 7.32522583 C-16.75129089 6.52454681 -15.95076294 5.7238678 -15.12597656 4.89892578 C-14.42426331 4.1927713 -13.72255005 3.48661682 -12.99957275 2.75906372 C-8.58199289 -1.1271687 -5.76400544 -1.36240129 0 0 Z M-80.5 61 C-82.93811532 65.87623064 -82.82333335 70.66999987 -82 76 C-80.26707339 79.94125787 -77.41119973 81.7548617 -73.75 83.9375 C-67.70667207 85.64977625 -63.15846428 85.15917526 -57.625 82.1875 C-54.31400991 79.42834159 -52.28327512 77.55691522 -51.49609375 73.23046875 C-51.33903352 66.04810779 -51.33903352 66.04810779 -54.625 59.875 C-58.32321812 56.30700082 -61.83847791 55.28193766 -66.875 54.625 C-72.27054694 55.27246563 -76.29849817 57.63879854 -80.5 61 Z " fill="#000000" transform="translate(371,186)"/>
<path d="M0 0 C1.02994835 -0.00935994 1.02994835 -0.00935994 2.08070374 -0.01890898 C4.38097496 -0.03486111 6.68018972 -0.02222711 8.98046875 -0.00964355 C10.62972634 -0.01506373 12.27897909 -0.0221858 13.92822266 -0.03088379 C18.40757091 -0.04913268 22.886551 -0.04204323 27.36590576 -0.02936745 C32.05123901 -0.01924786 36.73654052 -0.02863023 41.421875 -0.03491211 C49.29042222 -0.04219156 57.15881932 -0.03259303 65.02734375 -0.0135498 C74.12742646 0.00821953 83.22715071 0.00116837 92.32722473 -0.02085543 C100.13710094 -0.03900097 107.94686917 -0.0415719 115.75675964 -0.03110075 C120.42269772 -0.02486116 125.08846725 -0.02404295 129.75439453 -0.0372467 C134.14085692 -0.04879232 138.52685669 -0.0408033 142.91326904 -0.01766968 C144.52414176 -0.01237565 146.13505333 -0.01390823 147.74591064 -0.02272034 C149.94311376 -0.03363283 152.13882949 -0.01996683 154.3359375 0 C156.18094849 0.00226215 156.18094849 0.00226215 158.06323242 0.00457001 C161.74951554 0.60221956 162.92356627 1.58295559 165.16796875 4.50793457 C165.69921875 6.50793457 165.69921875 6.50793457 165.66796875 8.50793457 C165.6834375 9.49793457 165.6834375 9.49793457 165.69921875 10.50793457 C164.91138424 13.47389977 163.55732468 14.60472758 161.16796875 16.50793457 C158.06323242 17.01129913 158.06323242 17.01129913 154.3359375 17.01586914 C153.64930527 17.0221091 152.96267303 17.02834907 152.25523376 17.03477812 C149.95496254 17.05073025 147.65574778 17.03809625 145.35546875 17.0255127 C143.70621116 17.03093287 142.05695841 17.03805494 140.40771484 17.04675293 C135.92836659 17.06500182 131.4493865 17.05791237 126.97003174 17.04523659 C122.28469849 17.035117 117.59939698 17.04449937 112.9140625 17.05078125 C105.04551528 17.0580607 97.17711818 17.04846217 89.30859375 17.02941895 C80.20851104 17.00764961 71.10878679 17.01470078 62.00871277 17.03672457 C54.19883656 17.05487011 46.38906833 17.05744104 38.57917786 17.04696989 C33.91323978 17.0407303 29.24747025 17.03991209 24.58154297 17.05311584 C20.19508058 17.06466146 15.80908081 17.05667244 11.42266846 17.03353882 C9.81179574 17.02824479 8.20088417 17.02977737 6.59002686 17.03858948 C4.39282374 17.04950197 2.19710801 17.03583597 0 17.01586914 C-1.84501099 17.01360699 -1.84501099 17.01360699 -3.72729492 17.01129913 C-7.41357804 16.41364958 -8.58762877 15.43291355 -10.83203125 12.50793457 C-11.36328125 10.50793457 -11.36328125 10.50793457 -11.33203125 8.50793457 C-11.3475 7.51793457 -11.3475 7.51793457 -11.36328125 6.50793457 C-9.79278824 0.59549028 -5.4395476 0.00666939 0 0 Z " fill="#000000" transform="translate(66.83203125,247.4920654296875)"/>
<path d="M0 0 C1.1019722 -0.0112793 2.2039444 -0.02255859 3.33930969 -0.03417969 C4.54359116 -0.02608276 5.74787262 -0.01798584 6.98864746 -0.00964355 C8.89646248 -0.02015747 8.89646248 -0.02015747 10.84281921 -0.03088379 C14.32843213 -0.04911334 17.81357127 -0.04205157 21.29919243 -0.02936745 C24.94752145 -0.01923768 28.59581001 -0.02863305 32.24414062 -0.03491211 C38.3708016 -0.04218862 44.49726968 -0.03260087 50.62390137 -0.0135498 C57.7063507 0.00821915 64.78833944 0.00116776 71.87077761 -0.02085543 C77.95243919 -0.03900947 84.03396215 -0.04156779 90.11564207 -0.03110075 C93.7476071 -0.02486576 97.37935566 -0.02403009 101.01130676 -0.0372467 C105.06002057 -0.05095087 109.10794082 -0.03195569 113.15661621 -0.00964355 C114.96303841 -0.02178894 114.96303841 -0.02178894 116.80595398 -0.03417969 C118.45891228 -0.01726074 118.45891228 -0.01726074 120.14526367 0 C121.10242027 0.0015081 122.05957687 0.0030162 123.04573822 0.00457001 C126.30986125 0.65479282 127.50722542 1.95572721 129.57263184 4.50793457 C130.10388184 6.50793457 130.10388184 6.50793457 130.07263184 8.50793457 C130.08810059 9.49793457 130.08810059 9.49793457 130.10388184 10.50793457 C129.32935 13.42381914 127.87838701 14.60139721 125.57263184 16.50793457 C123.04573822 17.01129913 123.04573822 17.01129913 120.14526367 17.01586914 C119.04329147 17.02714844 117.94131927 17.03842773 116.80595398 17.05004883 C115.60167252 17.0419519 114.39739105 17.03385498 113.15661621 17.0255127 C111.88473953 17.03252197 110.61286285 17.03953125 109.30244446 17.04675293 C105.81683154 17.06498248 102.3316924 17.05792071 98.84607124 17.04523659 C95.19774222 17.03510682 91.54945367 17.04450219 87.90112305 17.05078125 C81.77446207 17.05805776 75.64799399 17.04847001 69.5213623 17.02941895 C62.43891297 17.00765 55.35692423 17.01470138 48.27448606 17.03672457 C42.19282448 17.05487861 36.11130153 17.05743693 30.0296216 17.04696989 C26.39765657 17.0407349 22.76590802 17.03989923 19.13395691 17.05311584 C15.0852431 17.06682001 11.03732285 17.04782483 6.98864746 17.0255127 C5.18222527 17.03765808 5.18222527 17.03765808 3.33930969 17.05004883 C1.68635139 17.03312988 1.68635139 17.03312988 0 17.01586914 C-0.9571566 17.01436104 -1.9143132 17.01285294 -2.90047455 17.01129913 C-6.16459758 16.36107632 -7.36196175 15.06014193 -9.42736816 12.50793457 C-9.95861816 10.50793457 -9.95861816 10.50793457 -9.92736816 8.50793457 C-9.94283691 7.51793457 -9.94283691 7.51793457 -9.95861816 6.50793457 C-8.58774473 1.34699928 -4.9173768 0.00774785 0 0 Z " fill="#000000" transform="translate(113.4273681640625,295.4920654296875)"/>
<path d="M0 0 C1.1019722 -0.0112793 2.2039444 -0.02255859 3.33930969 -0.03417969 C4.54359116 -0.02608276 5.74787262 -0.01798584 6.98864746 -0.00964355 C8.89646248 -0.02015747 8.89646248 -0.02015747 10.84281921 -0.03088379 C14.32843213 -0.04911334 17.81357127 -0.04205157 21.29919243 -0.02936745 C24.94752145 -0.01923768 28.59581001 -0.02863305 32.24414062 -0.03491211 C38.3708016 -0.04218862 44.49726968 -0.03260087 50.62390137 -0.0135498 C57.7063507 0.00821915 64.78833944 0.00116776 71.87077761 -0.02085543 C77.95243919 -0.03900947 84.03396215 -0.04156779 90.11564207 -0.03110075 C93.7476071 -0.02486576 97.37935566 -0.02403009 101.01130676 -0.0372467 C105.06002057 -0.05095087 109.10794082 -0.03195569 113.15661621 -0.00964355 C114.96303841 -0.02178894 114.96303841 -0.02178894 116.80595398 -0.03417969 C118.45891228 -0.01726074 118.45891228 -0.01726074 120.14526367 0 C121.10242027 0.0015081 122.05957687 0.0030162 123.04573822 0.00457001 C126.30986125 0.65479282 127.50722542 1.95572721 129.57263184 4.50793457 C130.10388184 6.50793457 130.10388184 6.50793457 130.07263184 8.50793457 C130.08810059 9.49793457 130.08810059 9.49793457 130.10388184 10.50793457 C129.32935 13.42381914 127.87838701 14.60139721 125.57263184 16.50793457 C123.04573822 17.01129913 123.04573822 17.01129913 120.14526367 17.01586914 C119.04329147 17.02714844 117.94131927 17.03842773 116.80595398 17.05004883 C115.60167252 17.0419519 114.39739105 17.03385498 113.15661621 17.0255127 C111.88473953 17.03252197 110.61286285 17.03953125 109.30244446 17.04675293 C105.81683154 17.06498248 102.3316924 17.05792071 98.84607124 17.04523659 C95.19774222 17.03510682 91.54945367 17.04450219 87.90112305 17.05078125 C81.77446207 17.05805776 75.64799399 17.04847001 69.5213623 17.02941895 C62.43891297 17.00765 55.35692423 17.01470138 48.27448606 17.03672457 C42.19282448 17.05487861 36.11130153 17.05743693 30.0296216 17.04696989 C26.39765657 17.0407349 22.76590802 17.03989923 19.13395691 17.05311584 C15.0852431 17.06682001 11.03732285 17.04782483 6.98864746 17.0255127 C5.18222527 17.03765808 5.18222527 17.03765808 3.33930969 17.05004883 C1.68635139 17.03312988 1.68635139 17.03312988 0 17.01586914 C-0.9571566 17.01436104 -1.9143132 17.01285294 -2.90047455 17.01129913 C-6.16459758 16.36107632 -7.36196175 15.06014193 -9.42736816 12.50793457 C-9.95861816 10.50793457 -9.95861816 10.50793457 -9.92736816 8.50793457 C-9.94283691 7.51793457 -9.94283691 7.51793457 -9.95861816 6.50793457 C-8.58774473 1.34699928 -4.9173768 0.00774785 0 0 Z " fill="#000000" transform="translate(113.4273681640625,199.4920654296875)"/>
<path d="M0 0 C1.38353165 -0.00810448 1.38353165 -0.00810448 2.79501343 -0.01637268 C5.84340512 -0.02887887 8.89085596 -0.01235744 11.93920898 0.00561523 C14.05622914 0.0054603 16.17324959 0.00397232 18.29026794 0.00120544 C22.7263544 -0.00017935 27.16211785 0.01239431 31.59814453 0.03515625 C37.29035233 0.06355825 42.98202401 0.06079984 48.67427158 0.04806614 C53.04510597 0.04111897 57.41581594 0.04888697 61.78663445 0.06132317 C63.88583843 0.0658458 65.98505573 0.06616741 68.08426094 0.06225777 C71.01478699 0.05935456 73.94456798 0.07580936 76.875 0.09765625 C78.18187523 0.09090378 78.18187523 0.09090378 79.51515198 0.08401489 C85.42937934 0.15744993 85.42937934 0.15744993 87.56439114 1.81500149 C89.70619806 4.57606062 89.75461373 7.07422776 89.87280273 10.50170898 C88.73629329 12.87804691 87.72839244 14.64611927 85.87280273 16.50170898 C82.94181938 16.61829462 80.03409309 16.66973597 77.10205078 16.67871094 C76.18174072 16.68528214 75.26143066 16.69185333 74.31323242 16.69862366 C71.25366139 16.71840869 68.19413955 16.73003075 65.13452148 16.73999023 C63.57124587 16.74610353 63.57124587 16.74610353 61.97638893 16.75234032 C56.46049826 16.77322321 50.94463263 16.78751534 45.42871094 16.796875 C39.72193217 16.80794449 34.01554279 16.84234445 28.30890179 16.8820467 C23.9294816 16.90815385 19.550155 16.91656158 15.17066383 16.92015648 C13.06667259 16.92503768 10.96268594 16.93669495 8.85877037 16.95519447 C5.91610997 16.97946051 2.97446744 16.9786438 0.03173828 16.97167969 C-1.27681374 16.99089478 -1.27681374 16.99089478 -2.61180115 17.01049805 C-8.51684616 16.9594604 -8.51684616 16.9594604 -11.66642761 14.59733582 C-13.24586605 12.33146621 -13.66990775 11.23518007 -13.62719727 8.50170898 C-13.64266602 7.51170898 -13.64266602 7.51170898 -13.65844727 6.50170898 C-11.79996784 -0.49491946 -5.98815833 -0.06660331 0 0 Z " fill="#000000" transform="translate(165.127197265625,343.498291015625)"/>
<path d="M0 0 C1.38353165 -0.00810448 1.38353165 -0.00810448 2.79501343 -0.01637268 C5.84340512 -0.02887887 8.89085596 -0.01235744 11.93920898 0.00561523 C14.05622914 0.0054603 16.17324959 0.00397232 18.29026794 0.00120544 C22.7263544 -0.00017935 27.16211785 0.01239431 31.59814453 0.03515625 C37.29035233 0.06355825 42.98202401 0.06079984 48.67427158 0.04806614 C53.04510597 0.04111897 57.41581594 0.04888697 61.78663445 0.06132317 C63.88583843 0.0658458 65.98505573 0.06616741 68.08426094 0.06225777 C71.01478699 0.05935456 73.94456798 0.07580936 76.875 0.09765625 C78.18187523 0.09090378 78.18187523 0.09090378 79.51515198 0.08401489 C85.42937934 0.15744993 85.42937934 0.15744993 87.56439114 1.81500149 C89.70619806 4.57606062 89.75461373 7.07422776 89.87280273 10.50170898 C88.73629329 12.87804691 87.72839244 14.64611927 85.87280273 16.50170898 C82.94181938 16.61829462 80.03409309 16.66973597 77.10205078 16.67871094 C76.18174072 16.68528214 75.26143066 16.69185333 74.31323242 16.69862366 C71.25366139 16.71840869 68.19413955 16.73003075 65.13452148 16.73999023 C63.57124587 16.74610353 63.57124587 16.74610353 61.97638893 16.75234032 C56.46049826 16.77322321 50.94463263 16.78751534 45.42871094 16.796875 C39.72193217 16.80794449 34.01554279 16.84234445 28.30890179 16.8820467 C23.9294816 16.90815385 19.550155 16.91656158 15.17066383 16.92015648 C13.06667259 16.92503768 10.96268594 16.93669495 8.85877037 16.95519447 C5.91610997 16.97946051 2.97446744 16.9786438 0.03173828 16.97167969 C-1.27681374 16.99089478 -1.27681374 16.99089478 -2.61180115 17.01049805 C-8.51684616 16.9594604 -8.51684616 16.9594604 -11.66642761 14.59733582 C-13.24586605 12.33146621 -13.66990775 11.23518007 -13.62719727 8.50170898 C-13.64266602 7.51170898 -13.64266602 7.51170898 -13.65844727 6.50170898 C-11.79996784 -0.49491946 -5.98815833 -0.06660331 0 0 Z " fill="#000000" transform="translate(165.127197265625,151.498291015625)"/>
</svg>
