<?xml version="1.0" encoding="UTF-8"?>
<svg version="1.1" xmlns="http://www.w3.org/2000/svg" width="512" height="512">
<path d="M0 0 C0.76940918 0.1556543 1.53881836 0.31130859 2.33154297 0.47167969 C25.54205005 5.36478469 58.25601292 17.76726716 73.22319031 37.62268066 C75.97281471 39.75409117 78.8851591 39.41447864 82.22192383 39.38476562 C82.95399551 39.3901384 83.6860672 39.39551117 84.44032288 39.40104675 C86.02975131 39.41082865 87.61923318 39.41376764 89.20868874 39.41069031 C91.72700601 39.4062145 94.24461965 39.4202065 96.76286316 39.43908691 C102.11273053 39.47589615 107.46252465 39.4895768 112.8125 39.5 C119.00240484 39.51208559 125.19196799 39.53369789 131.38171959 39.58000183 C133.85787325 39.59354944 136.33359263 39.58940455 138.80976868 39.58459473 C140.33648221 39.59393968 141.86319098 39.60410959 143.38989258 39.61523438 C144.07426392 39.60908615 144.75863525 39.60293793 145.46374512 39.59660339 C150.0186476 39.65467463 153.12828761 40.61561594 157 43 C161.66829197 49.11707224 161.10481671 55.70476098 160.94961548 63.03549194 C160.93268092 64.05511383 160.91574635 65.07473571 160.89829862 66.12525523 C160.86086655 68.36093363 160.82112005 70.59657417 160.77937508 72.83217621 C160.66403428 79.05379884 160.56792567 85.27572357 160.47061157 91.49765015 C160.45485228 92.48823768 160.45485228 92.48823768 160.43877462 93.49883708 C160.27333994 103.93260332 160.15319227 114.366223 160.06674194 124.80093384 C160.06084964 125.50865599 160.05495735 126.21637815 160.04888649 126.94554643 C159.98855634 134.26694904 159.93373571 141.58838436 159.88287447 148.90985849 C159.85647686 152.67152373 159.82859506 156.43317657 159.79980469 160.19482422 C159.79409818 160.94348124 159.78839167 161.69213826 159.78251223 162.46348186 C159.68735822 174.53021899 159.48559579 186.59291978 159.24420424 198.6575145 C158.99800808 211.08920478 158.8729902 223.51811023 158.85489404 235.95223773 C158.84134465 242.91743714 158.77461738 249.87306208 158.56773758 256.83543015 C156.65685716 290.42608044 156.65685716 290.42608044 170.93402469 319.40661442 C176.11001101 324.72501849 181.80147214 329.36219925 187.74946034 333.78615177 C193.92430053 338.43916593 197.54981977 343.6494593 200 351 C200.75612052 360.5163168 201.03427244 369.05707691 195 377 C189.46883669 383.34060184 182.66340532 387.20384012 174.3046875 388.37890625 C163.2263274 388.86812158 155.71146595 385.06532772 147.64020348 377.72881889 C143.93135351 374.21920178 141.32006872 370.64406846 138.62353516 366.31298828 C132.41527329 356.92872397 124.94318565 348.92264368 113.65049744 346.18925476 C93.9707976 342.98138696 73.51630558 344.10144562 53.66456437 344.68191552 C45.51015789 344.91510493 37.35621617 344.99510587 29.19903445 345.06482863 C12.46110404 345.21119837 -4.26762844 345.54196449 -21 346 C-20.72736328 346.88522339 -20.72736328 346.88522339 -20.44921875 347.78833008 C-19.62849004 350.46174862 -18.81417861 353.13707974 -18 355.8125 C-17.71382813 356.74126953 -17.42765625 357.67003906 -17.1328125 358.62695312 C-16.86210937 359.51962891 -16.59140625 360.41230469 -16.3125 361.33203125 C-16.06113281 362.15421143 -15.80976563 362.9763916 -15.55078125 363.82348633 C-15 366 -15 366 -15 369 C-13.81664062 368.96519531 -12.63328125 368.93039062 -11.4140625 368.89453125 C1.55779749 368.62554219 11.64347876 369.16894456 21.625 378.4375 C22.40875 379.283125 23.1925 380.12875 24 381 C24.680625 381.70125 25.36125 382.4025 26.0625 383.125 C31.09361913 390.59053161 32.44342522 398.17341926 32.62890625 407.0546875 C31.76117968 411.11845046 30.24825977 412.4366105 27 415 C24.01176972 415.49240165 21.59532922 415.67738709 18.61181641 415.63491821 C17.76986032 415.64271817 16.92790424 415.65051812 16.06043434 415.65855443 C13.24036472 415.67849153 10.42164203 415.66270344 7.6015625 415.64697266 C5.57939872 415.65374801 3.55724112 415.66265068 1.53509521 415.67352295 C-3.95665847 415.6963324 -9.44794292 415.68747297 -14.9397049 415.67162752 C-20.68426284 415.65897717 -26.42878034 415.67070624 -32.17333984 415.67855835 C-41.82071147 415.68765741 -51.46789178 415.67566017 -61.11523438 415.65185547 C-72.27221445 415.62464384 -83.4287377 415.63345781 -94.58570671 415.6609875 C-104.16121776 415.68367016 -113.73659121 415.68688273 -123.31212044 415.67379415 C-129.03276178 415.66599505 -134.75318833 415.6649708 -140.47381592 415.68147659 C-145.85183875 415.69590968 -151.22927206 415.68592043 -156.60723114 415.65700531 C-158.58212047 415.65038835 -160.55705933 415.65230255 -162.53192902 415.66331863 C-165.22589677 415.6769616 -167.91796976 415.65987424 -170.61181641 415.63491821 C-171.39537695 415.64607182 -172.17893749 415.65722543 -172.98624229 415.66871703 C-176.98645134 415.59672092 -178.80556048 415.15344346 -181.98495483 412.64439964 C-185.62874886 407.86254771 -184.69546101 402.73427287 -184 397 C-182.04728746 388.24725321 -177.81135318 380.60464724 -170.5703125 375.1796875 C-162.54082978 370.12770293 -155.42352888 368.68991502 -146.0625 368.875 C-145.18787109 368.88402344 -144.31324219 368.89304687 -143.41210938 368.90234375 C-141.27461936 368.9257043 -139.13727214 368.96156753 -137 369 C-136.85304687 368.14341797 -136.85304687 368.14341797 -136.703125 367.26953125 C-135.75082908 362.10578872 -134.49182823 357.14971982 -132.921875 352.13671875 C-132.5619043 350.98260498 -132.20193359 349.82849121 -131.83105469 348.6394043 C-131.55680664 347.76840088 -131.28255859 346.89739746 -131 346 C-132.03406982 346.02618408 -133.06813965 346.05236816 -134.13354492 346.0793457 C-137.98179359 346.17006423 -141.8299484 346.22732659 -145.67895508 346.2746582 C-147.34252839 346.29975347 -149.00599196 346.33383796 -150.66918945 346.37719727 C-153.06489153 346.4380746 -155.45913251 346.46625769 -157.85546875 346.48828125 C-158.96513252 346.52699089 -158.96513252 346.52699089 -160.09721375 346.56648254 C-164.07365195 346.56862679 -165.80989771 346.14997219 -168.9699707 343.65698242 C-171 341 -171 341 -171.625 338 C-170.75226102 333.81085289 -169.42359961 332.57534334 -166 330 C-162.44990325 329.25564922 -158.95482947 329.32279137 -155.33830261 329.36076355 C-153.70868236 329.34823004 -153.70868236 329.34823004 -152.04614049 329.33544332 C-148.39916958 329.31346467 -144.7532009 329.32713631 -141.10620117 329.34057617 C-138.49465162 329.33212602 -135.88310838 329.32148334 -133.27157593 329.30880737 C-127.64580204 329.28496689 -122.02024724 329.27935868 -116.39443016 329.28615379 C-108.26050723 329.29595193 -100.1268273 329.27822239 -91.99294368 329.25378648 C-78.79615306 329.21488754 -65.59943191 329.19823339 -52.40258789 329.19555664 C-39.58354122 329.19290891 -26.76457574 329.17979201 -13.94555664 329.15258789 C-13.15531643 329.15091451 -12.36507622 329.14924113 -11.55088934 329.14751705 C-7.58646324 329.13905754 -3.62203763 329.13039213 0.3423878 329.12162435 C33.22824975 329.04915985 66.11405986 329.01279156 99 329 C95.96204934 325.78829942 92.89100322 322.61031186 89.8125 319.4375 C88.94818359 318.52291016 88.08386719 317.60832031 87.19335938 316.66601562 C86.35224609 315.80556641 85.51113281 314.94511719 84.64453125 314.05859375 C83.87471924 313.25736084 83.10490723 312.45612793 82.31176758 311.63061523 C80.10926845 309.70453801 80.10926845 309.70453801 77.36376953 310.23144531 C76.58372559 310.48506836 75.80368164 310.73869141 75 311 C73.35852588 311.1586845 71.71088407 311.26302244 70.0625 311.3125 C69.24910156 311.34988281 68.43570312 311.38726562 67.59765625 311.42578125 C60.87688509 310.32418117 56.1739226 304.42237979 51.625 299.75 C50.98433594 299.1003125 50.34367187 298.450625 49.68359375 297.78125 C48.11770636 296.19199115 46.55671491 294.59823583 45 293 C44.01644531 293.49628906 43.03289062 293.99257813 42.01953125 294.50390625 C8.51115504 311.05510028 -31.1831479 318.34437871 -68 309 C-68.70141113 308.82307617 -69.40282227 308.64615234 -70.12548828 308.46386719 C-96.97834367 301.53371195 -126.20299646 288.26357432 -144.31944466 266.40824795 C-146.56556313 264.52607742 -147.8987682 264.62620859 -150.80685425 264.62818909 C-151.79662262 264.62143158 -152.78639099 264.61467407 -153.80615234 264.60771179 C-154.89089844 264.61543106 -155.97564453 264.62315033 -157.09326172 264.63110352 C-158.23658966 264.62733704 -159.3799176 264.62357056 -160.55789185 264.61968994 C-163.0444138 264.61324618 -165.53096038 264.61359802 -168.01748276 264.61987495 C-171.95104262 264.62895555 -175.88412278 264.61879535 -179.81765747 264.60325623 C-189.58882875 264.5670572 -199.35999336 264.56083091 -209.13122559 264.56335449 C-217.38261286 264.56521484 -225.63363979 264.55137695 -233.88495255 264.51487541 C-237.76330267 264.50402206 -241.64116602 264.51619869 -245.51950073 264.52870178 C-247.89565517 264.51979924 -250.27180561 264.50972552 -252.64794922 264.49829102 C-253.72864685 264.50803452 -254.80934448 264.51777802 -255.92279053 264.52781677 C-263.23924084 264.45742145 -263.23924084 264.45742145 -267.17019653 262.09385681 C-269.14603527 259.83289083 -269.66075863 258.95931876 -269.5625 256 C-269.56378906 255.34 -269.56507813 254.68 -269.56640625 254 C-268.69448235 250.92120664 -267.59827316 249.91546787 -265 248 C-261.67401251 247.38157328 -258.37414801 247.43638088 -254.99902344 247.45410156 C-253.98406799 247.44376389 -252.96911255 247.43342621 -251.92340088 247.42277527 C-248.56856498 247.39327716 -245.21433056 247.39184657 -241.859375 247.390625 C-239.53337447 247.37564814 -237.2073846 247.35892205 -234.88140869 247.34051514 C-228.75923177 247.29677424 -222.63719831 247.27682745 -216.51489258 247.26177979 C-210.26765435 247.24223311 -204.02057161 247.20026033 -197.7734375 247.16015625 C-185.51567288 247.08478099 -173.25794294 247.03453372 -161 247 C-161.45890625 246.35933594 -161.9178125 245.71867188 -162.390625 245.05859375 C-163.00421875 244.19363281 -163.6178125 243.32867187 -164.25 242.4375 C-164.85328125 241.59058594 -165.4565625 240.74367188 -166.078125 239.87109375 C-168 237 -168 237 -168.8168726 235.12707806 C-169.75009414 232.89436807 -169.75009414 232.89436807 -172 230 C-174.93107954 228.98130675 -177.742811 229.09584925 -180.82006836 229.17700195 C-181.70994949 229.17265137 -182.59983063 229.16830078 -183.51667786 229.16381836 C-186.45870964 229.1568038 -189.39811028 229.19818143 -192.33984375 229.23828125 C-194.38481322 229.23905348 -196.42978707 229.23616967 -198.4747467 229.2297821 C-203.86051316 229.22017989 -209.24531839 229.2488632 -214.63092041 229.28894043 C-223.24750668 229.3503341 -231.86384531 229.37016468 -240.48062325 229.35912132 C-243.49058138 229.36323106 -246.49949481 229.39355272 -249.50926208 229.42610168 C-251.35635197 229.42998288 -253.20344411 229.43293683 -255.05053711 229.43481445 C-255.88654449 229.45084213 -256.72255188 229.46686981 -257.58389282 229.48338318 C-261.60141564 229.46370645 -263.5351567 229.29278263 -267.02003479 227.0978241 C-269 225 -269 225 -269.62890625 223 C-269.60699219 222.34 -269.58507812 221.68 -269.5625 221 C-269.56443359 220.01 -269.56443359 220.01 -269.56640625 219 C-268.71573535 215.99625171 -267.48007581 214.90293936 -265 213 C-262.1167327 212.62596452 -259.62193377 212.49285102 -256.74316406 212.54589844 C-255.49870766 212.54502228 -255.49870766 212.54502228 -254.22911072 212.54412842 C-251.49085437 212.54691192 -248.75369083 212.57801589 -246.015625 212.609375 C-244.11562698 212.61683646 -242.21562126 212.62252984 -240.31561279 212.62652588 C-235.31771554 212.64178972 -230.32028414 212.68107807 -225.3225708 212.7253418 C-220.22162172 212.76627828 -215.12059729 212.78453343 -210.01953125 212.8046875 C-200.01281629 212.84757153 -190.0064469 212.91583202 -180 213 C-180.34933594 211.96359375 -180.69867188 210.9271875 -181.05859375 209.859375 C-181.51830932 208.48961023 -181.9779403 207.11981707 -182.4375 205.75 C-182.78264648 204.72712891 -182.78264648 204.72712891 -183.13476562 203.68359375 C-184.20803714 200.47933387 -185.26015608 197.29953381 -186 194 C-186.98083557 193.99635437 -187.96167114 193.99270874 -188.972229 193.98895264 C-198.21292003 193.95202123 -207.45327724 193.89426908 -216.69371414 193.81609726 C-221.44442381 193.77657754 -226.19494687 193.7444112 -230.94580078 193.72900391 C-235.53015166 193.7138668 -240.11398969 193.67947409 -244.69811249 193.63169098 C-246.44756362 193.61684667 -248.19708796 193.60895724 -249.94660187 193.60811615 C-252.39627342 193.60575383 -254.84451914 193.57873574 -257.29394531 193.54589844 C-258.38043617 193.55344398 -258.38043617 193.55344398 -259.48887634 193.56114197 C-262.73087906 193.4938423 -264.72519474 193.18235663 -267.44927979 191.37469482 C-269.49392253 188.24363192 -269.50742459 186.18970012 -269.51757812 182.45898438 C-269.5245874 181.81133621 -269.53159668 181.16368805 -269.53881836 180.49641418 C-269.55638226 178.36175288 -269.5447832 176.22842409 -269.53125 174.09375 C-269.53394542 172.60689032 -269.53782827 171.12003236 -269.54284668 169.63317871 C-269.54873948 166.51944164 -269.54018647 163.40616406 -269.52148438 160.29248047 C-269.49869415 156.30408912 -269.51181851 152.31677441 -269.53577423 148.32842255 C-269.55023858 145.25884917 -269.54562348 142.18953045 -269.53526306 139.11994934 C-269.5325975 137.64956026 -269.53585961 136.17914796 -269.54518127 134.70878601 C-269.55535835 132.65224099 -269.53983402 130.59743157 -269.51757812 128.54101562 C-269.51439575 127.37171509 -269.51121338 126.20241455 -269.50793457 124.99768066 C-269 122 -269 122 -267.44927979 119.61956787 C-264.10540117 117.40845324 -261.16824187 117.46897649 -257.29394531 117.54589844 C-256.13727104 117.54502228 -256.13727104 117.54502228 -254.95722961 117.54412842 C-252.41373347 117.54691053 -249.87141586 117.57800709 -247.328125 117.609375 C-245.56264893 117.61683697 -243.79716457 117.62253011 -242.03167725 117.62652588 C-237.38886579 117.64178572 -232.74655626 117.6810704 -228.10394287 117.7253418 C-223.36493723 117.76628703 -218.62585035 117.78453529 -213.88671875 117.8046875 C-204.59092552 117.84756443 -195.29550453 117.91581992 -186 118 C-185.87230225 117.32802078 -185.74460449 116.65604156 -185.61303711 115.96369934 C-185.4403833 115.07438217 -185.26772949 114.185065 -185.08984375 113.26879883 C-184.83642212 111.951455 -184.83642212 111.951455 -184.57788086 110.60749817 C-183.73823888 106.81888864 -182.42740459 103.28781009 -181 99.6875 C-180.73960937 99.01138672 -180.47921875 98.33527344 -180.2109375 97.63867188 C-178.83636116 94.0807407 -177.41657038 90.54142595 -176 87 C-215.6 87 -255.2 87 -296 87 C-295.98839844 99.43042969 -295.97679687 111.86085938 -295.96484375 124.66796875 C-295.95971635 132.68424501 -295.95485906 140.70052003 -295.95117188 148.71679688 C-295.94530973 161.35767032 -295.93851051 173.99853685 -295.92456055 186.6394043 C-295.87282936 234.43652876 -295.93068318 282.21278085 -297 330 C-295.73323929 329.98889694 -294.46647858 329.97779388 -293.16133118 329.96635437 C-281.22817426 329.86503265 -269.29510452 329.7900604 -257.36161518 329.74093914 C-251.22632748 329.7148364 -245.0913868 329.6794249 -238.95629883 329.62280273 C-233.03648146 329.56850875 -227.11699804 329.53858457 -221.19695091 329.52561378 C-218.93745859 329.51636933 -216.67798471 329.49831714 -214.41863441 329.47134972 C-211.25565604 329.43509533 -208.09406064 329.4300533 -204.9309082 329.43237305 C-203.99510925 329.41439667 -203.0593103 329.39642029 -202.09515381 329.37789917 C-197.56763161 329.41387016 -195.62109638 329.52676834 -191.91838074 332.34797668 C-190 335 -190 335 -189.375 338 C-190.24561321 342.17894342 -191.59321119 343.42477166 -195 346 C-198.46126925 346.73161995 -201.8596564 346.66284572 -205.38647461 346.61523438 C-206.43095261 346.62078339 -207.4754306 346.6263324 -208.55155945 346.63204956 C-212.00228839 346.64385477 -215.45170673 346.61955858 -218.90234375 346.59375 C-221.30220988 346.59203896 -223.70207788 346.59210451 -226.10194397 346.59387207 C-231.13153973 346.59221827 -236.1606901 346.57350952 -241.19018555 346.54199219 C-247.63425821 346.50233636 -254.07774679 346.49794425 -260.5219183 346.50545502 C-265.477924 346.50852624 -270.43379864 346.4963983 -275.38977242 346.47932434 C-277.76560201 346.47229712 -280.14144646 346.46916947 -282.5172863 346.47001648 C-285.83984025 346.46821674 -289.16169752 346.44681795 -292.48413086 346.41992188 C-293.95481018 346.42431778 -293.95481018 346.42431778 -295.4552002 346.42880249 C-300.66824408 346.36376604 -304.5972838 346.10813077 -309 343 C-313.18151868 338.16928148 -312.4173175 332.45698947 -312.38095093 326.42285156 C-312.3856309 325.23787708 -312.39031087 324.0529026 -312.39513266 322.83201981 C-312.40502924 319.54639968 -312.40146616 316.26111195 -312.39217401 312.97550011 C-312.3853895 309.43079227 -312.39586176 305.88612955 -312.40411377 302.34143066 C-312.41745972 295.39876494 -312.41456955 288.45619647 -312.40587585 281.51352692 C-312.39910309 275.87151796 -312.39818081 270.22953627 -312.4014473 264.58752441 C-312.401907 263.78479072 -312.40236669 262.98205702 -312.40284032 262.15499806 C-312.40379949 260.52430438 -312.40477213 258.89361071 -312.4057581 257.26291704 C-312.41431451 241.96876388 -312.40447392 226.67466466 -312.388357 211.38052034 C-312.37495358 198.2549553 -312.37728161 185.12946985 -312.39111328 172.00390625 C-312.40716465 156.76480676 -312.41349052 141.52575455 -312.40427649 126.2866478 C-312.40332083 124.66192373 -312.40237772 123.03719966 -312.4014473 121.41247559 C-312.40075306 120.21335537 -312.40075306 120.21335537 -312.40004479 118.9900105 C-312.39745357 113.35420933 -312.40182874 107.71843813 -312.40888596 102.0826416 C-312.41729624 95.21528999 -312.41503079 88.34804126 -312.39904372 81.48070145 C-312.3911546 77.97627855 -312.3880802 74.47202725 -312.39799118 70.96760559 C-312.40615508 67.17061386 -312.39594675 63.37410892 -312.38095093 59.57714844 C-312.38764309 58.46674824 -312.39433526 57.35634804 -312.40123022 56.21229935 C-312.32888211 46.80672173 -312.32888211 46.80672173 -309 43 C-304.86221356 40.35782158 -301.64975131 39.62079586 -296.78271484 39.59594727 C-294.97086197 39.57692101 -294.97086197 39.57692101 -293.12240601 39.55751038 C-291.8316214 39.56044601 -290.54083679 39.56338165 -289.2109375 39.56640625 C-287.8614577 39.5618406 -286.51198023 39.55653389 -285.1625061 39.55052185 C-282.34326692 39.54161475 -279.52431141 39.54398818 -276.70507812 39.55395508 C-273.09564794 39.56547378 -269.4871919 39.54517851 -265.87788963 39.51603794 C-263.09485688 39.49768402 -260.31205834 39.4979661 -257.52898026 39.50367546 C-255.55252169 39.5039029 -253.57608512 39.48701101 -251.59970093 39.46986389 C-249.79730453 39.48393532 -249.79730453 39.48393532 -247.95849609 39.49829102 C-246.37347794 39.49854027 -246.37347794 39.49854027 -244.75643921 39.49879456 C-241.31010592 40.12544397 -240.14934306 41.29015116 -238 44 C-236.90689617 47.04507494 -236.87818261 48.5634877 -237.75 51.6875 C-239 54 -239 54 -242 56 C-244.41081238 56.24050903 -244.41081238 56.24050903 -247.29760742 56.22705078 C-248.37850143 56.22689972 -249.45939545 56.22674866 -250.57304382 56.22659302 C-251.73874405 56.21627045 -252.90444427 56.20594788 -254.10546875 56.1953125 C-255.89698112 56.19106766 -255.89698112 56.19106766 -257.72468567 56.18673706 C-261.54572497 56.17552677 -265.36653134 56.15042037 -269.1875 56.125 C-271.77538724 56.11497131 -274.36327816 56.10584527 -276.95117188 56.09765625 C-283.30087123 56.07558461 -289.6503961 56.04104871 -296 56 C-296 60.95 -296 65.9 -296 71 C-253.1 71 -210.2 71 -166 71 C-165.34 69.35 -164.68 67.7 -164 66 C-162.84531527 64.35679481 -161.63528266 62.75118404 -160.375 61.1875 C-159.74335938 60.39730469 -159.11171875 59.60710937 -158.4609375 58.79296875 C-157.73777344 57.90544922 -157.73777344 57.90544922 -157 57 C-157.69046921 56.99635437 -158.38093842 56.99270874 -159.09233093 56.98895264 C-166.27893734 56.94714191 -173.46490426 56.87780555 -180.65112305 56.79248047 C-183.33310425 56.76204491 -186.01489752 56.74136468 -188.69702148 56.72900391 C-192.55235559 56.70759728 -196.40668486 56.66095492 -200.26171875 56.609375 C-202.06040657 56.60753204 -202.06040657 56.60753204 -203.89543152 56.60565186 C-212.21876092 56.45921457 -212.21876092 56.45921457 -216.25463867 54.08691406 C-218.13165558 51.84258051 -218.68152354 50.89400521 -218.625 48 C-218.64433594 47.01 -218.64433594 47.01 -218.6640625 46 C-217.61873049 42.85170593 -215.73510638 41.79453079 -213 40 C-209.73934937 39.5415802 -209.73934937 39.5415802 -205.99755859 39.59692383 C-204.9695816 39.60310226 -204.9695816 39.60310226 -203.9208374 39.60940552 C-202.43829328 39.62013237 -200.95579193 39.63962893 -199.47346115 39.66697121 C-197.11729772 39.70756779 -194.76265293 39.71879644 -192.40615845 39.72160339 C-185.70915287 39.73333141 -179.01315583 39.78540875 -172.31689453 39.88647461 C-168.21283956 39.9463453 -164.11050782 39.96165512 -160.00606155 39.9503231 C-158.45200365 39.95474486 -156.89789171 39.97575286 -155.34431076 40.01450539 C-147.22588301 40.21316964 -141.28503411 39.99304975 -134.67626953 34.60986328 C-133.09531692 33.09608817 -131.53327534 31.56204768 -130 30 C-94.24015522 0.67444433 -44.81243432 -9.25746418 0 0 Z M-138.3671875 59.6171875 C-140.66173273 62.35635049 -142.84933022 65.14659791 -145 68 C-145.72832031 68.96292969 -146.45664063 69.92585938 -147.20703125 70.91796875 C-157.60768203 85.28944592 -165.33300058 100.89013028 -170 118 C-170.20882812 118.72606445 -170.41765625 119.45212891 -170.6328125 120.20019531 C-180.39415813 155.21438922 -173.53250506 193.72406606 -156 225 C-136.95510417 258.24072224 -106.00730988 281.53954826 -69.359375 292.16015625 C-32.73229375 301.31692656 5.42717017 296.53522781 38.328125 277.68359375 C47.94718658 271.62245992 56.78723365 264.87702433 65 257 C65.94359375 256.13117188 66.8871875 255.26234375 67.859375 254.3671875 C80.63915886 242.3629468 89.92169779 227.96845651 97 212 C97.28069336 211.37383789 97.56138672 210.74767578 97.85058594 210.10253906 C102.71314169 199.10021915 106.05925592 187.77647342 107.76953125 175.87109375 C107.9557605 174.57800293 107.9557605 174.57800293 108.14575195 173.25878906 C108.37745752 171.57696755 108.59158017 169.89260599 108.78588867 168.20605469 C109.54350038 162.49843278 109.54350038 162.49843278 111.87109375 159.95703125 C115.2478935 158.43902035 117.50934469 158.98453664 121 160 C123.62836835 163.07425226 124.00025517 164.74993445 123.99609375 168.828125 C123.83165998 170.30466974 123.64411379 171.77876461 123.4375 173.25 C123.28414185 174.43928101 123.28414185 174.43928101 123.12768555 175.65258789 C120.58017586 194.16473653 115.24494734 212.40588928 105.87109375 228.65234375 C104.72965994 230.93551209 104.72965994 230.93551209 105.74633789 232.94189453 C107.04366571 235.0716849 108.38060924 236.56529408 110.1875 238.27734375 C110.80367188 238.87353516 111.41984375 239.46972656 112.0546875 240.08398438 C113.34961327 241.31780421 114.64648566 242.54958431 115.9453125 243.77929688 C120.38349238 248.08284577 122.78780449 251.0823117 123.25 257.4375 C123.0016801 260.97605858 122.17769178 263.67722677 121 267 C124.25407496 270.27871843 127.51136353 273.55419645 130.77172852 276.82666016 C131.88135208 277.94132524 132.9900782 279.05688443 134.09790039 280.17333984 C135.68663505 281.77414804 137.27852617 283.37175612 138.87109375 284.96875 C139.36902939 285.47184692 139.86696503 285.97494385 140.37998962 286.49328613 C141.56782964 287.68132102 142.78137878 288.84356015 144 290 C144.33 290 144.66 290 145 290 C145 223.01 145 156.02 145 87 C133.45 87 121.9 87 110 87 C111.98 92.28 113.96 97.56 116 103 C116.99984183 106.21564332 117.95709617 109.37746684 118.8125 112.625 C119.01552734 113.36105469 119.21855469 114.09710938 119.42773438 114.85546875 C123.87238979 131.25522042 123.87238979 131.25522042 121 137 C117.84195178 138.57902411 114.42707096 138.87749599 111 138 C108.57728949 135.26859113 107.55316778 133.06622147 106.89453125 129.5 C106.72018555 128.6229541 106.54583984 127.7459082 106.36621094 126.84228516 C106.09212402 125.435354 106.09212402 125.435354 105.8125 124 C100.84461437 100.61694268 90.44567268 80.14658564 75 62 C74.16339844 61.01 73.32679688 60.02 72.46484375 59 C66.8473195 52.59014666 60.78617021 47.14609723 54 42 C53.22269531 41.40703125 52.44539062 40.8140625 51.64453125 40.203125 C-6.71021896 -2.41441452 -89.78962995 5.90932684 -138.3671875 59.6171875 Z M91 56 C92.32 58.31 93.64 60.62 95 63 C95.44356842 63.79402222 95.88713684 64.58804443 96.34414673 65.40612793 C98.27123244 68.41995099 99.72063021 70.60520502 103.22869873 71.68774414 C105.9259781 71.92640985 108.50586166 71.90115973 111.2109375 71.78125 C112.17907379 71.76993042 113.14721008 71.75861084 114.14468384 71.74694824 C117.22350713 71.70231996 120.29759575 71.60198682 123.375 71.5 C125.46738044 71.4598553 127.55983421 71.42335626 129.65234375 71.390625 C134.7700411 71.30262891 139.88421922 71.16467785 145 71 C145 66.05 145 61.1 145 56 C127.18 56 109.36 56 91 56 Z M-253 133 C-253 147.85 -253 162.7 -253 178 C-231.88 178 -210.76 178 -189 178 C-189 163.15 -189 148.3 -189 133 C-210.12 133 -231.24 133 -253 133 Z M95 247 C93.62787699 248.53195272 92.3284554 250.12921081 91.0625 251.75 C83.30964709 261.39771952 75.31615062 270.1042738 65.62890625 277.84375 C62.67173408 280.19720305 62.67173408 280.19720305 59 284 C62.3 287.3 65.6 290.6 69 294 C72.40766781 292.2961661 74.00535533 291.24087336 76.57519531 288.65185547 C77.25559875 287.97130096 77.9360022 287.29074646 78.63702393 286.58956909 C79.36008728 285.85618317 80.08315063 285.12279724 80.828125 284.3671875 C81.57713074 283.61535187 82.32613647 282.86351624 83.09783936 282.08889771 C85.4866302 279.68892099 87.86836897 277.28207991 90.25 274.875 C91.86933169 273.24563648 93.48911802 271.61672466 95.109375 269.98828125 C99.07820505 265.99741194 103.04126899 262.00088585 107 258 C106.04746129 256.88361407 105.09419504 255.76784888 104.140625 254.65234375 C103.60985352 254.03093506 103.07908203 253.40952637 102.53222656 252.76928711 C100.77193996 250.73665533 99.00717389 248.79211954 97 247 C96.34 247 95.68 247 95 247 Z M107.23413086 279.65234375 C106.48526611 280.40644531 105.73640137 281.16054688 104.96484375 281.9375 C104.15595703 282.74960937 103.34707031 283.56171875 102.51367188 284.3984375 C101.66353516 285.25695312 100.81339844 286.11546875 99.9375 287 C99.08349609 287.85851562 98.22949219 288.71703125 97.34960938 289.6015625 C95.2308362 291.7321724 93.11442241 293.86507372 91 296 C92.27842236 298.79988918 93.60594114 300.85756007 95.77494812 303.03564453 C96.3397438 303.60752502 96.90453949 304.17940552 97.4864502 304.76861572 C98.41294373 305.69139313 98.41294373 305.69139313 99.3581543 306.6328125 C100.0104451 307.29021423 100.6627359 307.94761597 101.33479309 308.62493896 C103.49278077 310.79682668 105.65811967 312.96120402 107.82421875 315.125 C109.32938846 316.63405717 110.83433424 318.14333772 112.33906555 319.65283203 C115.49566938 322.81689953 118.65612377 325.97706062 121.8190918 329.13476562 C125.864859 333.17474634 129.89916676 337.22595682 133.93040752 341.28042603 C137.03676659 344.40154547 140.15005569 347.51567993 143.26535988 350.62786865 C144.75518718 352.11820827 146.24266175 353.61090377 147.72769737 355.10601807 C149.80963607 357.20034422 151.90096213 359.28484022 153.99487305 361.3671875 C154.60241425 361.98237244 155.20995544 362.59755737 155.83590698 363.23138428 C159.96410492 367.30956195 164.50154219 371.55855422 170.4765625 372.3125 C175.36005282 371.60217413 178.4836611 370.72945035 182 367 C184.53400819 362.68046291 184.82547537 358.89345724 184 354 C180.719995 348.2449374 175.76642289 343.4806359 171.0925293 338.84960938 C170.43001663 338.18519836 169.76750397 337.52078735 169.08491516 336.83624268 C166.91952081 334.66717832 164.74707417 332.50533808 162.57421875 330.34375 C161.06024787 328.83097242 159.54664778 327.31782368 158.03340149 325.80432129 C154.87520854 322.64768628 151.71370225 319.49442187 148.54956055 316.34375 C144.48435175 312.29562492 140.42585212 308.24085286 136.36955547 304.18379974 C133.25160619 301.06612148 130.13106494 297.95104891 127.00962257 294.83686829 C125.5110231 293.34145916 124.01303573 291.84543637 122.51566124 290.34880066 C120.43311546 288.2684092 118.34731992 286.19133531 116.26049805 284.11523438 C115.63766937 283.49195251 115.0148407 282.86867065 114.37313843 282.22650146 C111.07446865 277.95473108 111.07446865 277.95473108 107.23413086 279.65234375 Z M-114 346 C-114.48085247 347.43354606 -114.96092639 348.86735328 -115.44067383 350.30126953 C-115.70809891 351.09969269 -115.97552399 351.89811584 -116.25105286 352.72073364 C-117.13809776 355.4202721 -117.93684102 358.13449896 -118.6875 360.875 C-119.06455078 362.23238281 -119.06455078 362.23238281 -119.44921875 363.6171875 C-120.11260472 366.07954851 -120.11260472 366.07954851 -120 369 C-90.96 369 -61.92 369 -32 369 C-33.52450757 360.3360273 -33.52450757 360.3360273 -35.5625 351.875 C-35.81128906 350.96492188 -36.06007813 350.05484375 -36.31640625 349.1171875 C-36.81022523 347.03789611 -36.81022523 347.03789611 -38 346 C-40.37300869 345.90505267 -42.71678703 345.87440681 -45.09008789 345.88647461 C-45.83150528 345.88632858 -46.57292267 345.88618256 -47.33680725 345.8860321 C-49.79878621 345.88673135 -52.26069043 345.89452426 -54.72265625 345.90234375 C-56.42516539 345.90420789 -58.12767507 345.90563181 -59.83018494 345.90663147 C-64.31993073 345.91045698 -68.80964438 345.92028753 -73.29937744 345.93133545 C-77.87731491 345.94154887 -82.45525756 345.94612894 -87.03320312 345.95117188 C-96.02214957 345.96190978 -105.01107212 345.97898659 -114 346 Z M-163.875 392 C-164.47054687 392.680625 -165.06609375 393.36125 -165.6796875 394.0625 C-167.28156501 396.02241812 -167.28156501 396.02241812 -167 399 C-106.94 399 -46.88 399 15 399 C14.0050964 393.83092733 14.0050964 393.83092733 10.8125 390.3125 C10.24144531 389.73113281 9.67039062 389.14976562 9.08203125 388.55078125 C4.61240961 385.22162592 -0.12755403 384.74918542 -5.56555176 384.73930359 C-6.86932266 384.73221878 -8.17309357 384.72513397 -9.51637268 384.71783447 C-10.94906651 384.72012797 -12.38176001 384.72263762 -13.81445312 384.7253418 C-15.33267975 384.72099165 -16.85090418 384.71580749 -18.36912537 384.70985413 C-22.48270294 384.69648701 -26.5961885 384.69588278 -30.70978355 384.69841743 C-34.14673553 384.69948845 -37.583669 384.69460052 -41.02061701 384.689812 C-49.12915595 384.67872524 -57.23764856 384.67827507 -65.34619141 384.68432617 C-73.70663481 384.69036934 -82.06691006 384.67804438 -90.42732477 384.6567561 C-97.61135508 384.63913703 -104.79533187 384.63313913 -111.97938299 384.63639385 C-116.26751626 384.63820598 -120.55552951 384.63557724 -124.84364319 384.62167931 C-128.87548102 384.60910018 -132.90705663 384.61104575 -136.93889046 384.62409019 C-138.41670381 384.62645516 -139.89453563 384.62372413 -141.3723278 384.61546707 C-143.39301039 384.60499244 -145.41376775 384.6149069 -147.43444824 384.6257782 C-148.56414787 384.62561046 -149.6938475 384.62544271 -150.85778046 384.62526989 C-156.46801586 385.29432694 -160.26415219 387.76327191 -163.875 392 Z " fill="#000000" transform="translate(312,50)"/>
<path d="M0 0 C24.3510802 21.45336013 39.92472495 51.90844757 42.79101562 84.33959961 C44.60100119 120.03770645 35.34516087 153.28240167 11.41601562 180.40209961 C9.88112644 182.05425537 8.33942453 183.70010782 6.79101562 185.33959961 C6.05496094 186.15170898 5.31890625 186.96381836 4.56054688 187.80053711 C-17.24354968 210.95597633 -49.49819139 222.88380517 -80.79101562 224.33569336 C-93.60960408 224.49840334 -106.41619665 223.15027019 -118.83398438 219.96459961 C-119.60911377 219.76785645 -120.38424316 219.57111328 -121.18286133 219.3684082 C-125.60890953 218.12609526 -128.93789672 216.73136817 -132.20898438 213.33959961 C-133.07455808 210.5869677 -132.81819973 208.14428916 -132.20898438 205.33959961 C-130.64648438 202.83959961 -130.64648438 202.83959961 -128.20898438 201.33959961 C-122.21554645 200.8542698 -117.11504127 202.24416542 -111.39648438 203.77709961 C-81.91605668 211.16202794 -53.28897861 205.66119524 -26.89648438 190.96459961 C-13.14822737 182.60417305 -0.67109776 171.06450386 7.79101562 157.33959961 C8.14405762 156.7767627 8.49709961 156.21392578 8.86083984 155.6340332 C24.30099146 130.75201488 29.9486928 101.08990083 23.75195312 72.30834961 C19.62761 54.79052109 11.96470805 37.75696985 -0.20898438 24.33959961 C-1.27052734 23.08469727 -1.27052734 23.08469727 -2.35351562 21.80444336 C-20.00738505 1.30616766 -47.14916966 -12.46814908 -74.20898438 -14.66040039 C-104.05232161 -16.41027296 -133.68845942 -8.90938459 -156.63085938 10.97631836 C-157.48164063 11.75620117 -158.33242187 12.53608398 -159.20898438 13.33959961 C-160.12164062 14.17104492 -161.03429687 15.00249023 -161.97460938 15.85913086 C-183.15603162 36.06431437 -194.93902802 63.7757495 -196.17382812 92.96069336 C-196.81762047 122.8258812 -185.35082686 151.95604669 -164.94775391 173.62231445 C-161.22877753 177.29533886 -157.163504 180.63071938 -153.02099609 183.81469727 C-149.65690604 186.51641845 -148.37370692 187.74420934 -147.18554688 192.03881836 C-147.20898438 195.33959961 -147.20898438 195.33959961 -148.77148438 198.21459961 C-151.78344331 200.84040997 -153.21116089 201.41798831 -157.20898438 201.33959961 C-162.69303444 198.6239402 -166.96528952 195.21478362 -171.39648438 191.02709961 C-172.04504395 190.41463379 -172.69360352 189.80216797 -173.36181641 189.17114258 C-198.86100365 164.57214728 -211.86542884 132.49704079 -213.20898438 97.33959961 C-213.81727555 63.29579775 -200.21767468 31.05366082 -176.87207031 6.60205078 C-128.98429958 -42.20851901 -51.53526681 -44.14579424 0 0 Z " fill="#000000" transform="translate(364.208984375,108.660400390625)"/>
<path d="M0 0 C9.54058928 5.96691092 16.245209 13.94923566 18.9375 25.05078125 C20.53066657 35.42331254 18.33767735 45.80041676 12.1171875 54.37890625 C5.38528081 62.18505337 -2.91940596 66.41559448 -13.09375 67.7578125 C-22.73751834 68.2415614 -31.87074043 65.50230987 -39.1953125 59.19140625 C-46.38594591 52.08248459 -50.85604049 44.72312821 -51.07617188 34.37695312 C-51.04504547 22.76680336 -49.07080961 15.06124644 -40.83984375 6.41796875 C-30.22996786 -3.36089683 -13.2263882 -6.39052763 0 0 Z M-31.296875 20.1328125 C-34.94735154 25.01710933 -35.39241175 29.67434127 -35.11328125 35.671875 C-34.32353297 40.90487999 -31.54362552 43.79689173 -27.7578125 47.19140625 C-22.66885392 50.93023296 -19.04401733 51.98870839 -12.6953125 51.44140625 C-6.43103412 49.38931506 -2.93757358 46.32431335 1.0546875 41.19140625 C3.39965455 36.03247874 4.01455203 30.78990777 2.3671875 25.31640625 C0.30916002 20.53986805 -3.49095405 17.3658088 -7.6953125 14.44140625 C-16.86860575 11.38364183 -24.71999594 13.18698656 -31.296875 20.1328125 Z " fill="#000000" transform="translate(357.6953125,172.55859375)"/>
<path d="M0 0 C3.3521936 1.87256236 5.58344205 3.23950362 8.1328125 6.19140625 C8.91530752 9.25414067 8.64962581 10.93548239 8.1328125 14.19140625 C6.5703125 16.69140625 6.5703125 16.69140625 4.1328125 18.19140625 C-1.06337101 18.97573584 -3.51702481 17.8812145 -7.82421875 15.08203125 C-11.91951697 13.29670048 -16.49136322 13.90654246 -20.8671875 14.19140625 C-20.8671875 15.51140625 -20.8671875 16.83140625 -20.8671875 18.19140625 C-19.97257812 18.56652344 -19.07796875 18.94164062 -18.15625 19.328125 C-14.99183016 20.66743702 -11.83709096 22.02504715 -8.68847656 23.40087891 C-7.10538865 24.08801545 -5.51427912 24.75661333 -3.921875 25.421875 C2.15166238 28.14289404 5.83099903 31.36754338 9.1328125 37.19140625 C10.87757158 42.4256835 11.25735383 48.30734552 9.2265625 53.515625 C5.46945965 59.83767307 0.33918473 64.35492309 -6.671875 66.6875 C-15.22444888 68.65063529 -23.77472214 67.00566342 -31.390625 62.796875 C-35.26763788 60.31884897 -38.35315892 58.11236826 -40.8671875 54.19140625 C-41.3671875 51.25390625 -41.3671875 51.25390625 -40.8671875 48.19140625 C-38.3377604 44.66553817 -36.82307138 43.38979724 -32.5546875 42.50390625 C-28.79586963 43.2047028 -27.82011273 43.8013495 -24.9921875 46.12890625 C-20.83455186 49.53574555 -17.23972409 50.63060601 -11.8671875 50.19140625 C-8.77363092 49.28960289 -8.77363092 49.28960289 -6.8671875 47.19140625 C-6.44937871 44.56446203 -6.44937871 44.56446203 -6.8671875 42.19140625 C-8.09115234 41.79308594 -8.09115234 41.79308594 -9.33984375 41.38671875 C-31.97452889 33.71649322 -31.97452889 33.71649322 -36.8671875 25.19140625 C-38.74623726 19.55425696 -38.76862063 13.45916214 -36.4296875 7.94140625 C-29.29626615 -4.70886975 -11.92572856 -5.64799356 0 0 Z " fill="#000000" transform="translate(224.8671875,172.80859375)"/>
<path d="M0 0 C1.26972656 -0.00644531 2.53945313 -0.01289063 3.84765625 -0.01953125 C5.16636719 -0.00019531 6.48507812 0.01914063 7.84375 0.0390625 C9.82181641 0.01005859 9.82181641 0.01005859 11.83984375 -0.01953125 C13.74443359 -0.00986328 13.74443359 -0.00986328 15.6875 0 C16.84443359 0.00563965 18.00136719 0.0112793 19.19335938 0.01708984 C23.25019021 0.85021149 24.76354997 2.49742625 27.34375 5.6640625 C27.7890625 7.796875 27.7890625 7.796875 27.46875 9.7890625 C27.38882813 10.45164063 27.30890625 11.11421875 27.2265625 11.796875 C25.84189822 14.72550123 24.30972969 15.40070287 21.34375 16.6640625 C18.39282851 17.00665729 15.4966961 16.948505 12.53125 16.8515625 C11.74298828 16.83802734 10.95472656 16.82449219 10.14257812 16.81054688 C8.20933831 16.77539706 6.27645318 16.72159611 4.34375 16.6640625 C4.34375 20.2940625 4.34375 23.9240625 4.34375 27.6640625 C5.52453125 27.61765625 6.7053125 27.57125 7.921875 27.5234375 C9.47914134 27.48591301 11.03643508 27.44951357 12.59375 27.4140625 C13.37105469 27.38054687 14.14835937 27.34703125 14.94921875 27.3125 C20.71265565 27.21397971 20.71265565 27.21397971 23.86328125 29.4609375 C26.01424998 32.66185139 25.81497959 34.89422578 25.34375 38.6640625 C23.58359869 41.8490982 22.84484084 42.49703222 19.34375 43.6640625 C16.77109182 43.73435371 14.22733569 43.75777082 11.65625 43.7265625 C10.6034082 43.71979492 10.6034082 43.71979492 9.52929688 43.71289062 C7.80074462 43.70113177 6.07223635 43.68319704 4.34375 43.6640625 C4.34375 47.2940625 4.34375 50.9240625 4.34375 54.6640625 C6.33148438 54.57705078 6.33148438 54.57705078 8.359375 54.48828125 C10.10413144 54.4413792 11.84892598 54.39587951 13.59375 54.3515625 C14.46644531 54.30966797 15.33914063 54.26777344 16.23828125 54.22460938 C22.70231625 54.10124993 22.70231625 54.10124993 25.95703125 56.95703125 C27.84301739 60.63868871 27.4367634 62.72921428 26.34375 66.6640625 C24.44841125 69.24861535 23.45548483 69.62681756 20.34375 70.6640625 C16.22304884 70.92382017 12.09676187 70.89546785 7.96875 70.9140625 C6.83179688 70.9346875 5.69484375 70.9553125 4.5234375 70.9765625 C3.42515625 70.98171875 2.326875 70.986875 1.1953125 70.9921875 C0.19322754 71.0015332 -0.80885742 71.01087891 -1.84130859 71.02050781 C-5.15258388 70.60121363 -6.98310883 69.63642126 -9.65625 67.6640625 C-11.92855537 64.25560444 -11.92110542 62.9941429 -11.96264648 58.98681641 C-11.97863388 57.82195709 -11.99462128 56.65709778 -12.01109314 55.4569397 C-12.01645584 54.19755585 -12.02181854 52.938172 -12.02734375 51.640625 C-12.03637222 50.34716156 -12.0454007 49.05369812 -12.05470276 47.72103882 C-12.07118815 44.98229478 -12.07889193 42.24367292 -12.08178711 39.50488281 C-12.08716907 36.00183426 -12.12484019 32.49993994 -12.17053127 28.99721718 C-12.20749764 25.64919167 -12.20881769 22.30134767 -12.21484375 18.953125 C-12.23437607 17.69778961 -12.25390839 16.44245422 -12.27403259 15.14907837 C-12.22942747 6.5537787 -12.22942747 6.5537787 -9.53735352 2.375 C-6.09411292 0.33023853 -3.994028 0.0194695 0 0 Z " fill="#000000" transform="translate(263.65625,169.3359375)"/>
<path d="M0 0 C0.6847641 -0.00817749 1.3695282 -0.01635498 2.07504272 -0.02478027 C4.34518559 -0.04962838 6.61526595 -0.0661489 8.88549805 -0.08056641 C9.66073507 -0.08589008 10.4359721 -0.09121376 11.23470116 -0.09669876 C15.33826077 -0.12342819 19.44178998 -0.14280345 23.54541016 -0.15722656 C27.78260851 -0.17387168 32.01902864 -0.21864781 36.25593281 -0.26959801 C39.51505927 -0.30326546 42.7740009 -0.31480335 46.03328514 -0.32045364 C47.59501275 -0.32716791 49.15672812 -0.34239478 50.71828651 -0.36634445 C52.90658464 -0.39799064 55.09278283 -0.3980352 57.28125 -0.390625 C59.14750786 -0.40275528 59.14750786 -0.40275528 61.0514679 -0.41513062 C65.24659645 0.36173566 66.72048606 1.88987842 69.3347168 5.19287109 C69.9597168 8.19287109 69.9597168 8.19287109 69.3347168 11.19287109 C66.72536233 14.48535665 65.24643261 16.02146568 61.06492615 16.80760193 C59.2077169 16.79999596 59.2077169 16.79999596 57.31298828 16.79223633 C56.28277557 16.79815041 56.28277557 16.79815041 55.23175049 16.80418396 C52.97235018 16.81087096 50.71499297 16.78178721 48.45581055 16.75146484 C46.88070568 16.7472121 45.30559454 16.74488587 43.73048401 16.74440002 C40.43429022 16.73824242 37.13877807 16.71558017 33.84277344 16.67993164 C29.62036142 16.63462242 25.39856556 16.61990321 21.17593288 16.61619473 C17.92537881 16.61176374 14.67495369 16.59645629 11.42445564 16.57731819 C9.86755494 16.56844746 8.31064055 16.5617119 6.75372124 16.55715752 C4.57792985 16.54810214 2.40269177 16.52570188 0.22705078 16.49926758 C-1.01029312 16.48862778 -2.24763702 16.47798798 -3.5224762 16.46702576 C-6.5057453 16.20678797 -8.2082737 15.85802768 -10.6652832 14.19287109 C-12.25298792 11.01746166 -12.07628623 7.6509655 -11.6652832 4.19287109 C-8.57806246 -0.15730359 -5.04293657 0.05222662 0 0 Z " fill="#000000" transform="translate(54.665283203125,332.80712890625)"/>
</svg>
