<?xml version="1.0" encoding="UTF-8"?>
<svg version="1.1" xmlns="http://www.w3.org/2000/svg" width="512" height="512">
<path d="M0 0 C1.88084008 -0.00417518 3.76167764 -0.00965371 5.64251053 -0.01631981 C10.80010763 -0.0307689 15.95754486 -0.02653132 21.11515069 -0.019153 C26.68173232 -0.01442232 32.24827932 -0.02693031 37.81484985 -0.03717041 C48.71606906 -0.05436573 59.61723065 -0.05519688 70.5184599 -0.04995751 C79.37923683 -0.04591592 88.23999674 -0.04735924 97.10077286 -0.05270576 C98.36194222 -0.05345419 99.62311159 -0.05420261 100.9224982 -0.05497371 C103.48457336 -0.05650519 106.04664851 -0.05804354 108.60872366 -0.05958868 C125.81065363 -0.06941723 143.01257543 -0.07358142 160.21450615 -0.06596279 C160.88691888 -0.06566562 161.55933161 -0.06536844 162.25212049 -0.06506227 C167.7123001 -0.06261342 173.17247964 -0.06000179 178.63265918 -0.05737813 C199.92864884 -0.04727662 221.22455966 -0.05563032 242.52053833 -0.07887268 C266.45778313 -0.10495556 290.39497412 -0.11774093 314.33223832 -0.11068493 C327.00249118 -0.10719141 339.6726793 -0.1094336 352.34292221 -0.12693596 C363.12889722 -0.14165067 373.91476189 -0.14230287 384.70073472 -0.12486505 C390.20285311 -0.11634671 395.70477432 -0.11422604 401.20688248 -0.1295166 C406.24654659 -0.14334853 411.28584431 -0.13861951 416.32548715 -0.11927737 C418.14572374 -0.11551249 419.96598958 -0.11845335 421.78620015 -0.12888902 C434.6465038 -0.19735985 445.36227016 0.73731661 455.6723938 9.3290863 C463.13439234 16.97981244 465.98235925 25.82754545 465.97073364 36.26365662 C465.98080948 37.57223885 465.98080948 37.57223885 465.99108887 38.90725708 C466.01002985 41.78099828 466.01399133 44.65450537 466.0161438 47.52830505 C466.02257524 49.53601679 466.02930386 51.54372759 466.03631592 53.55143738 C466.04827952 57.75777864 466.05199776 61.96403783 466.05081177 66.1703949 C466.05060882 71.54130172 466.07789029 76.91167798 466.11235619 82.28245926 C466.13467531 86.42965578 466.13864774 90.57672572 466.13759232 94.72397614 C466.13994152 96.70298335 466.14872639 98.68199441 466.16425705 100.66094208 C466.33028184 124.00464138 466.33028184 124.00464138 457.6802063 133.63768005 C457.0202063 134.4059613 456.3602063 135.17424255 455.6802063 135.96580505 C445.25992588 144.3780106 432.79457543 146.60656751 420.04348755 149.37205505 C417.99250692 149.82911318 415.94183955 150.28757899 413.89146423 150.74734497 C408.39891173 151.97493439 402.90228989 153.18327058 397.40467072 154.38793564 C391.69107955 155.64343908 385.98150088 156.91692574 380.27151489 158.18870544 C370.96109922 160.26013831 361.64848221 162.32136206 352.33401489 164.37449646 C339.52482488 167.19819288 326.72085266 170.04493974 313.91848755 172.8993988 C310.13361158 173.74298551 306.34869492 174.58638945 302.56375122 175.42967224 C301.66169103 175.63065584 300.75963083 175.83163944 299.83023548 176.03871346 C285.78301364 179.16759014 271.73175645 182.27830806 257.6802063 185.38768005 C257.66562378 186.56797791 257.65104126 187.74827576 257.63601685 188.96434021 C257.57787933 193.35917381 257.50064749 197.75350332 257.41775513 202.14793396 C257.38457837 204.04693904 257.35652399 205.94604101 257.33377075 207.84519958 C257.30009112 210.5811324 257.2477691 213.31618316 257.19192505 216.05174255 C257.18553513 216.89572601 257.1791452 217.73970947 257.17256165 218.60926819 C257.04995767 223.56676054 256.4851371 227.12516131 253.6802063 231.38768005 C246.29727485 235.69401122 237.72879302 234.82357904 229.4302063 234.78611755 C227.84654608 234.78814187 226.26288678 234.79105629 224.67922974 234.79481506 C221.37087063 234.79922159 218.06275563 234.79286163 214.75442505 234.77879333 C210.53130662 234.76170228 206.30876033 234.77155249 202.08566284 234.78951073 C198.81867222 234.80039401 195.55181539 234.79688149 192.28482056 234.78912735 C190.72842337 234.78713788 189.17201371 234.78954019 187.6156311 234.79656601 C171.62117018 234.85293746 171.62117018 234.85293746 165.6802063 231.38768005 C162.35821852 226.33941464 162.21268981 221.88999365 162.16848755 216.05174255 C162.15053635 215.17239044 162.13258514 214.29303833 162.11408997 213.38703918 C162.06017817 210.59563401 162.02615301 207.80439794 161.9927063 205.01268005 C161.9595163 203.11291704 161.92502509 201.21317628 161.88919067 199.3134613 C161.80446281 194.67165661 161.73756069 190.0299004 161.6802063 185.38768005 C160.43472519 185.11000793 159.18924408 184.83233582 157.90602112 184.54624939 C152.97077667 183.44593005 148.03556458 182.34546567 143.10036278 181.24495506 C140.81021874 180.73428035 138.52006902 180.22363115 136.22991371 179.71300697 C122.38723055 176.62648881 108.54521846 173.53700247 94.70462036 170.44114685 C89.56499404 169.29171525 84.42533954 168.14240973 79.28567505 166.9931488 C77.37089041 166.56492105 77.37089041 166.56492105 75.41742325 166.12804222 C60.09911921 162.70300004 44.77621637 159.30081289 29.44296455 155.94333267 C24.51694129 154.86296568 19.59270337 153.77449568 14.66867352 152.68508339 C10.24869535 151.70810917 5.82607467 150.74460018 1.40089703 149.79147053 C-1.92027293 149.07183728 -5.23680769 148.33169722 -8.5541687 147.5947113 C-9.6897673 147.35505142 -10.82536591 147.11539154 -11.99537659 146.86846924 C-23.8824285 144.18394755 -34.9920855 139.59485457 -41.81588745 129.08299255 C-45.64595966 122.46445418 -46.4717667 117.37919472 -46.49679565 109.73875427 C-46.50336685 108.86665817 -46.50993805 107.99456207 -46.51670837 107.09603882 C-46.53640824 104.21148079 -46.54809819 101.32697482 -46.55807495 98.44236755 C-46.56215048 97.45455418 -46.56622601 96.4667408 -46.57042503 95.44899368 C-46.5912742 90.21794597 -46.60557949 84.98692437 -46.61495972 79.75584412 C-46.6260064 74.36921731 -46.66038968 68.98300561 -46.70013142 63.59652519 C-46.72635726 59.44076299 -46.73465698 55.28509868 -46.7382412 51.12926102 C-46.7430937 49.14466176 -46.7546693 47.16006649 -46.77327919 45.17554855 C-46.89417508 31.42608967 -46.41857161 19.8230839 -36.3197937 9.38768005 C-25.20733022 0.14127176 -13.75478494 -0.04957729 0 0 Z M-21.16854858 29.07655334 C-22.84492048 32.44187304 -22.75404502 35.68725022 -22.73971558 39.3657074 C-22.74818512 40.1662001 -22.75665466 40.96669281 -22.76538086 41.79144287 C-22.78876494 44.43566308 -22.78977262 47.07930179 -22.7885437 49.72361755 C-22.79564506 51.56440972 -22.80334402 53.40519966 -22.81161499 55.24598694 C-22.82506348 59.10447847 -22.8266272 62.96276539 -22.82077026 66.8212738 C-22.81487753 71.76009799 -22.84544607 76.697938 -22.88588715 81.63657188 C-22.91176948 85.43878954 -22.91464101 89.24077051 -22.91099548 93.04306412 C-22.91268662 94.86350094 -22.92232854 96.6839487 -22.94013977 98.50429916 C-22.96233805 101.05381845 -22.95262426 103.60134972 -22.93502808 106.15086365 C-22.94829132 106.89911911 -22.96155457 107.64737457 -22.97521973 108.41830444 C-22.90700307 112.68362301 -22.21054327 115.98525566 -19.18541336 119.13092804 C-14.90037628 122.0174912 -9.67999821 122.72387315 -4.70114136 123.76878357 C-2.74105121 124.21017907 -0.78096322 124.65158426 1.17903411 125.09339172 C3.26097786 125.5582988 5.34509125 126.01199769 7.43013763 126.46277237 C11.61926564 127.36998448 15.79891249 128.31602665 19.97738647 129.27095032 C28.11505492 131.12653785 36.26031987 132.94707551 44.40734148 134.76109767 C47.63967811 135.48113121 50.8716544 136.20277529 54.10363901 136.92438704 C61.71377932 138.62349087 69.32448151 140.32005946 76.93557739 142.01487732 C84.76957222 143.75937336 92.60261025 145.50811846 100.43520987 147.2588672 C107.20979272 148.7729856 113.9849209 150.28464511 120.76050317 151.79428488 C124.78745002 152.69153067 128.81418973 153.58967986 132.84041214 154.49017143 C136.6009702 155.33112544 140.36219931 156.16900819 144.12397766 157.00448608 C145.50333942 157.31137683 146.88245892 157.61935871 148.26131821 157.92849922 C150.13886734 158.34926507 152.01737674 158.76573923 153.89593506 159.18197632 C154.94690683 159.41623794 155.99787861 159.65049955 157.08069801 159.89186001 C159.73029023 160.48135928 159.73029023 160.48135928 162.6802063 160.38768005 C162.71758911 159.57943787 162.75497192 158.77119568 162.79348755 157.9384613 C162.89210083 156.33551208 162.89210083 156.33551208 162.9927063 154.70018005 C163.07971802 153.11656677 163.07971802 153.11656677 163.16848755 151.5009613 C163.72797676 148.097046 164.64298973 146.15074576 166.6802063 143.38768005 C170.33301186 140.95247635 173.06112555 141.09190391 177.28518677 141.09715271 C178.44422516 141.08707687 178.44422516 141.08707687 179.62667847 141.07679749 C182.18364882 141.05778396 184.74035713 141.05389156 187.2973938 141.05174255 C189.07474882 141.04531672 190.85210278 141.03858852 192.62945557 141.03157043 C196.35684664 141.01958912 200.08414498 141.01589046 203.81155396 141.01707458 C208.58557198 141.01727777 213.35899468 140.98998021 218.13287163 140.95553017 C221.80463385 140.93328104 225.47625238 140.92923644 229.1480751 140.93029404 C230.90793026 140.9279349 232.66778918 140.91909379 234.42757797 140.9036293 C236.89095349 140.88400996 239.35304003 140.88979074 241.81643677 140.90184021 C242.90449112 140.88498169 242.90449112 140.88498169 244.01452637 140.86778259 C247.57755805 140.91202044 249.56652677 141.31615494 252.60919189 143.23054504 C256.97669912 147.77966973 256.23004324 154.40694223 256.6802063 160.38768005 C265.00040108 159.08680713 273.20594269 157.47366229 281.42068481 155.62547302 C283.24092918 155.22003014 283.24092918 155.22003014 285.09794617 154.80639648 C288.39753696 154.07075262 291.6964648 153.33226229 294.99511075 152.59240103 C298.49624391 151.80781291 301.99818052 151.02682621 305.50001526 150.24537659 C311.40211344 148.92777145 317.30367365 147.60778014 323.2048645 146.28611755 C329.18849006 144.94599925 335.1725066 143.60764877 341.15701294 142.27146912 C341.88791252 142.10827549 342.6188121 141.94508186 343.37186015 141.77694297 C344.84237799 141.44861729 346.31289662 141.1202951 347.78341603 140.79197645 C360.45593064 137.96247919 373.12668445 135.12525884 385.79525304 132.27814436 C393.11317643 130.63354333 400.43252666 128.99601615 407.75631428 127.37772179 C411.10769554 126.63618466 414.45761643 125.88822383 417.80714226 125.13835526 C419.25497202 124.81589207 420.70348559 124.49648014 422.15274239 124.1804924 C424.06072456 123.76427646 425.9661468 123.33637464 427.87136841 122.90769958 C428.8886351 122.68292938 429.90590179 122.45815918 430.95399475 122.22657776 C434.76934523 121.05253506 437.56680272 119.43918193 440.467453 116.69979858 C442.23039784 113.3387379 442.10638817 110.09967186 442.08425903 106.39378357 C442.09112228 105.59168457 442.09798553 104.78958557 442.10505676 103.96318054 C442.12334448 101.31413526 442.11948447 98.66568112 442.11380005 96.0165863 C442.11836101 94.17339892 442.12366632 92.33021323 442.12968445 90.48703003 C442.13861949 86.62433462 442.13618808 82.76184592 442.12625122 78.89915466 C442.11476275 73.95138619 442.13496903 69.00433153 442.16416836 64.05665684 C442.18252322 60.2501981 442.1822393 56.44391063 442.17653084 52.63741875 C442.17637753 50.81337928 442.18243002 48.98932827 442.19482231 47.16533089 C442.20971674 44.61342351 442.19906733 42.06283738 442.18191528 39.51097107 C442.19158325 38.75912033 442.20125122 38.00726959 442.21121216 37.2326355 C442.16171076 33.7117758 441.77724478 31.55042392 439.96134949 28.50497437 C435.49308199 24.35765147 430.99510795 24.09631822 425.11637974 24.13320446 C424.35939343 24.12999798 423.60240713 24.1267915 422.82248184 24.12348786 C420.27738584 24.11516428 417.73252371 24.12112036 415.18742371 24.12698364 C413.34772204 24.12396404 411.50802163 24.12007552 409.66832346 24.11539108 C404.60608043 24.10507777 399.54390796 24.10730136 394.48165905 24.11157167 C389.02485898 24.11403285 383.56807616 24.10503234 378.11128235 24.09753418 C367.41841552 24.08476838 356.72557377 24.08299581 346.03270061 24.08533444 C337.34388961 24.08711559 328.65508625 24.08537233 319.96627617 24.08111 C318.73087484 24.08051481 317.49547352 24.07991962 316.22263579 24.0793064 C313.71313584 24.07809468 311.2036359 24.07688055 308.69413596 24.07566402 C287.83090991 24.0660218 266.96769437 24.0655876 246.10446734 24.07096794 C245.44081513 24.07113902 244.77716292 24.07131011 244.09340004 24.07148638 C242.75133406 24.07183304 241.40926809 24.07218157 240.06720211 24.07253197 C219.18143225 24.07789 198.29570461 24.06995692 177.40994263 24.05149841 C153.94998564 24.03078921 130.49005075 24.02008469 107.0300836 24.0240739 C94.60642125 24.02598891 82.18279737 24.02346919 69.75914192 24.00935936 C59.1833814 23.99747004 48.60768302 23.99601312 38.03192169 24.00814953 C32.63376793 24.01405533 27.23572795 24.01509078 21.83758163 24.00314713 C16.89861524 23.9923462 11.95985844 23.99532229 7.02090209 24.00940881 C5.23158932 24.01207177 3.44226042 24.00963945 1.65296341 24.00167295 C-0.77498795 23.99161098 -3.2022045 23.99995073 -5.630126 24.01294994 C-6.67764612 24.00198592 -6.67764612 24.00198592 -7.74632826 23.99080041 C-13.13862747 24.05084203 -17.16762494 25.42163233 -21.16854858 29.07655334 Z M186.6802063 164.38768005 C186.6802063 179.23768005 186.6802063 194.08768005 186.6802063 209.38768005 C201.8602063 209.38768005 217.0402063 209.38768005 232.6802063 209.38768005 C232.6802063 194.53768005 232.6802063 179.68768005 232.6802063 164.38768005 C217.5002063 164.38768005 202.3202063 164.38768005 186.6802063 164.38768005 Z " fill="#000000" transform="translate(46.319793701171875,115.61231994628906)"/>
<path d="M0 0 C3.06765423 1.72196807 5.40321354 3.80642707 7 7 C7.10178196 9.03661874 7.13786149 11.07661963 7.14476013 13.11576843 C7.15165863 14.42100967 7.15855713 15.72625092 7.16566467 17.07104492 C7.16837953 18.52612291 7.17101667 19.98120104 7.17358398 21.4362793 C7.17988748 22.96214487 7.18665306 24.4880086 7.19384766 26.01387024 C7.20853439 29.30526534 7.22025249 32.59665326 7.22979546 35.88806725 C7.24523228 41.0947491 7.26918277 46.30136988 7.29469299 51.50801086 C7.36593249 66.3157668 7.42562392 81.12355813 7.47680664 95.93139648 C7.5051356 104.10549896 7.54053347 112.27954107 7.58346039 120.4535802 C7.61019987 125.62659502 7.62812569 130.79954151 7.63949764 135.97261178 C7.64864366 139.19718754 7.66601545 142.42168064 7.68567657 145.64620781 C7.6931309 147.13809658 7.69723186 148.63000658 7.69767189 150.12191391 C7.69876045 152.16440554 7.71321154 154.20687684 7.72825623 156.24931335 C7.73248816 157.39066081 7.7367201 158.53200827 7.74108028 159.70794201 C8.08833224 164.12310819 8.43862999 168.39000424 11.62940979 171.6801545 C14.90776263 173.50540427 17.41633177 173.3785682 21.16245937 173.38311005 C21.88820071 173.38806956 22.61394204 173.39302908 23.36167553 173.39813888 C25.80659538 173.4111476 28.2509738 173.40269386 30.69590759 173.39440918 C32.46121487 173.39929559 34.22651894 173.40548423 35.99181753 173.41286707 C40.85304845 173.42932136 45.71411777 173.42693754 50.57536685 173.4214921 C55.81404368 173.41882866 61.05267677 173.43334073 66.29133606 173.44558716 C76.55822089 173.46667209 86.82504929 173.47118027 97.09195321 173.46939927 C105.43421423 173.46809324 113.77645759 173.47188765 122.11871529 173.47932434 C124.51884589 173.48142346 126.9189765 173.48352106 129.31910712 173.48561716 C130.51359964 173.48666069 131.70809217 173.48770422 132.93878145 173.48877937 C155.54464206 173.50769392 178.15047025 173.50662774 200.7563355 173.49981004 C221.45210545 173.49423305 242.14775166 173.51506454 262.84349268 173.54817051 C284.07771716 173.5818751 305.31188231 173.59707992 326.54613405 173.59245348 C338.47405369 173.5902056 350.40185894 173.59549852 362.32975578 173.62034607 C372.48363268 173.64131742 382.63733248 173.64499262 392.79121654 173.62604648 C397.97463945 173.6168631 403.15773178 173.61582504 408.3411293 173.63640213 C413.08284066 173.65501811 417.82394852 173.65071467 422.56563623 173.62785631 C424.28430302 173.62364674 426.00301524 173.62794909 427.72163414 173.64145225 C430.05239278 173.65852305 432.38102281 173.64499021 434.71169949 173.62361908 C436.65584276 173.62402766 436.65584276 173.62402766 438.63926166 173.62444448 C442.87163583 172.83804506 444.34246847 171.31304656 447 168 C448.25807147 164.23648914 448.12471687 160.46469979 448.12457275 156.51673889 C448.12713577 155.2059285 448.12969879 153.8951181 448.13233948 152.54458618 C448.13026976 151.09881584 448.12814701 149.65304558 448.12597656 148.20727539 C448.12737207 146.67934619 448.12927186 145.15141738 448.13163757 143.62348938 C448.13612778 140.33704887 448.13799051 137.05062082 448.13809967 133.76417732 C448.13924155 128.56593292 448.15209041 123.36775928 448.16766357 118.16954041 C448.17023643 117.29165157 448.17280928 116.41376273 448.1754601 115.5092712 C448.18072637 113.714412 448.18601186 111.91955285 448.19131613 110.12469375 C448.22641213 98.02590766 448.2529756 85.9272104 448.25048828 73.82836914 C448.24889973 65.66224628 448.26493153 57.49636553 448.30119491 49.3303203 C448.3196522 45.01079508 448.32899961 40.69167415 448.31671906 36.372118 C448.30528077 32.30973993 448.31698892 28.24808611 448.34635353 24.18580437 C448.35299206 22.69671818 448.35113067 21.20756566 448.34005547 19.71850586 C448.25376365 7.065065 448.25376365 7.065065 451.41522217 3.12986755 C455.31923146 -0.08705215 457.7371112 -0.34891868 462.67578125 -0.27734375 C466.33083987 0.1588061 468.33192462 1.52714964 471 4 C472.79644961 8.29671299 473.25232954 11.96844384 473.26069641 16.60110474 C473.26778122 17.91303299 473.27486603 19.22496124 473.28216553 20.5766449 C473.27987195 22.01870762 473.27736229 23.46077002 473.2746582 24.90283203 C473.27900852 26.43102772 473.28419273 27.95922122 473.29014587 29.4874115 C473.30351792 33.63031644 473.30411617 37.77313003 473.30158257 41.91605234 C473.30051089 45.38226262 473.30540169 48.84845457 473.310188 52.31466091 C473.32127862 60.50015252 473.32172417 68.68559826 473.31567383 76.87109375 C473.30964411 85.29276553 473.32192055 93.71426981 473.3432439 102.13591301 C473.36091293 109.38288149 473.36685262 116.62979692 473.36360615 123.87678611 C473.36180038 128.19752739 473.36435782 132.51814938 473.37832069 136.838871 C473.39097969 140.90848193 473.38887942 144.97783411 473.37590981 149.04744148 C473.37356131 150.53240996 473.37621598 152.01739709 473.38453293 153.50234413 C473.45732171 167.52116114 472.04965365 179.50972073 462 190 C452.74174053 197.11844603 443.10165312 199.1222598 431.57886124 199.12863445 C430.50294867 199.13126401 430.50294867 199.13126401 429.4053005 199.13394669 C427.00734307 199.13859007 424.60944672 199.13614548 422.21148682 199.13371277 C420.47261879 199.13558158 418.73375119 199.13788256 416.99488425 199.14057809 C412.2204675 199.14669386 407.44606827 199.14656276 402.6716485 199.14538372 C397.52086269 199.14517965 392.37008251 199.15069901 387.21929932 199.15544128 C377.12929454 199.16374721 367.0392956 199.1664961 356.94928768 199.16705366 C348.74731633 199.16752886 340.5453469 199.16958378 332.34337616 199.17275429 C309.08801753 199.18156076 285.83266351 199.18617368 262.5773032 199.18542381 C261.32363885 199.18538386 260.06997449 199.1853439 258.77832031 199.18530273 C256.89552705 199.18524141 256.89552705 199.18524141 254.97469756 199.18517885 C234.63240709 199.1847724 214.29013513 199.19434175 193.94785002 199.2084411 C173.05929475 199.22280481 152.17074851 199.22971129 131.28218818 199.22884732 C119.55536858 199.22851535 107.82856839 199.23126266 96.10175323 199.24202538 C86.1172505 199.2511303 76.13277597 199.25330568 66.14827088 199.24651595 C61.0553196 199.2432507 55.96242244 199.24319429 50.86947632 199.2518692 C46.20361392 199.25973483 41.53784854 199.25830208 36.87198851 199.24958507 C35.18762512 199.24805023 33.5032545 199.24986565 31.81889966 199.25544515 C19.17319218 199.29454698 7.86145766 199.1822215 -3 192 C-3.886875 191.4225 -4.77375 190.845 -5.6875 190.25 C-14.41588764 181.75751472 -17.0432552 171.58776407 -17.38095093 159.64372253 C-17.40983472 156.87439342 -17.40064781 154.10607546 -17.38818359 151.33666992 C-17.39225825 149.7994754 -17.39760511 148.2622838 -17.40411377 146.72509766 C-17.41768125 142.5869661 -17.41253445 138.44906124 -17.40297651 134.3109262 C-17.39533154 129.96470938 -17.40243823 125.61851075 -17.40713501 121.27229309 C-17.41257565 113.98203069 -17.4054425 106.69185981 -17.39111328 99.40161133 C-17.37475934 90.98425021 -17.38010193 82.56710682 -17.3965925 74.14975089 C-17.41021915 66.90273148 -17.41212219 59.65577748 -17.40427649 52.4087494 C-17.39961039 48.08882566 -17.39894642 43.76900423 -17.40888596 39.44908714 C-17.41757165 35.39170784 -17.41150466 31.33460894 -17.39420319 27.27725983 C-17.3902482 25.79180427 -17.39135543 24.30632498 -17.39799118 22.82087898 C-17.45499162 8.76186991 -17.45499162 8.76186991 -14 3 C-10.00305143 -0.64427664 -5.16772558 -0.99903306 0 0 Z " fill="#000000" transform="translate(28,279)"/>
<path d="M0 0 C1.70163048 -0.00503792 1.70163048 -0.00503792 3.43763733 -0.01017761 C7.17222196 -0.01964392 10.90676155 -0.02162853 14.64135742 -0.02270508 C17.24916095 -0.02592056 19.8569643 -0.02928485 22.46476746 -0.03279114 C27.92605887 -0.03917152 33.38733817 -0.04067512 38.84863281 -0.04003906 C45.13678891 -0.03943885 51.42485907 -0.04998505 57.71299344 -0.06578273 C63.79023958 -0.08049954 69.86744486 -0.08402536 75.94470787 -0.08342934 C78.51737507 -0.0846055 81.09004297 -0.08900676 83.66269875 -0.0967617 C87.26869362 -0.10661432 90.87446998 -0.10366272 94.48046875 -0.09765625 C96.05737488 -0.10608551 96.05737488 -0.10608551 97.6661377 -0.11468506 C109.68761883 -0.06408045 120.97162186 1.52552079 130.30932617 9.64526367 C131.01057617 10.47026367 131.71182617 11.29526367 132.43432617 12.14526367 C133.11495117 12.86713867 133.79557617 13.58901367 134.49682617 14.33276367 C141.76468342 24.88287903 142.67297098 37.95298638 141.16088867 50.39526367 C140.45000138 53.50707219 139.3795874 55.20304349 137.18432617 57.52026367 C132.7954956 60.11366355 129.81379429 60.383103 124.80932617 59.52026367 C120.97690192 57.95890564 119.59312325 56.63255126 117.43432617 53.14526367 C115.96647681 48.34739537 116.09001541 43.32274961 115.91674805 38.34448242 C115.76310419 32.89676687 115.76310419 32.89676687 113.43432617 28.14526367 C110.30793599 26.21283234 107.91771314 25.89433163 104.27270508 25.89129639 C103.22963196 25.88565674 102.18655884 25.88001709 101.11187744 25.87420654 C99.97305115 25.878255 98.83422485 25.88230347 97.66088867 25.88647461 C96.45728699 25.88296997 95.2536853 25.87946533 94.01361084 25.87585449 C90.71607528 25.8685608 87.41879072 25.87026972 84.12126923 25.87661266 C80.66914026 25.88167884 77.21702197 25.87697949 73.76489258 25.87384033 C67.96783525 25.87020249 62.17082889 25.874995 56.3737793 25.88452148 C49.67316668 25.89540571 42.97267578 25.89188 36.27206612 25.88086867 C30.51739524 25.87179061 24.76276098 25.87051306 19.00808525 25.87574601 C15.57179647 25.87886286 12.13556488 25.8792829 8.69927979 25.87267303 C4.86872634 25.86581936 1.03830906 25.87532086 -2.79223633 25.88647461 C-4.50047577 25.88040192 -4.50047577 25.88040192 -6.2432251 25.87420654 C-7.80783478 25.88266602 -7.80783478 25.88266602 -9.40405273 25.89129639 C-10.30958893 25.89205044 -11.21512512 25.89280449 -12.14810181 25.89358139 C-14.74636434 26.16407453 -16.3542979 26.77786249 -18.56567383 28.14526367 C-21.66967164 32.22112022 -20.953814 37.78058061 -21.04418945 42.68237305 C-21.25614827 48.50865561 -22.1628547 53.65958871 -26.37817383 58.02026367 C-30.50541866 60.14284673 -33.63637973 60.30548679 -38.19067383 59.52026367 C-42.04448866 57.95019096 -43.42868259 56.67951841 -45.56567383 53.14526367 C-48.6950211 41.02163352 -46.8187277 27.23193537 -40.92114258 16.30151367 C-39.13127462 13.45423093 -37.12457404 11.32032885 -34.56567383 9.14526367 C-33.84379883 8.46463867 -33.12192383 7.78401367 -32.37817383 7.08276367 C-22.43407267 0.23238288 -11.65652549 -0.00499608 0 0 Z " fill="#000000" transform="translate(208.565673828125,33.854736328125)"/>
</svg>
