<?xml version="1.0" encoding="UTF-8"?>
<svg version="1.1" xmlns="http://www.w3.org/2000/svg" width="512" height="512">
<path d="M0 0 C5.45852912 4.99397345 8.72629826 11.47190573 12.265625 17.890625 C13.96357354 21.03106963 13.96357354 21.03106963 16 24 C15.58469148 31.68320761 9.12166976 37.22086138 4.21875 42.53515625 C-0.83339186 47.79746996 -0.83339186 47.79746996 -2.8125 54.5625 C-2.88082031 55.30628906 -2.94914062 56.05007812 -3.01953125 56.81640625 C-2.9994752 59.0586731 -2.58925728 60.84512482 -2 63 C-1.41925972 68.80740276 -1.99600351 72.10591916 -5.30078125 76.92578125 C-7.9203576 80.123471 -10.87192828 82.93361333 -13.9140625 85.7265625 C-18.23391929 90.43472102 -19.31848219 94.58805942 -19.4375 100.875 C-20.00866089 110.96550901 -23.71943441 116.04213189 -30.1953125 123.60546875 C-34.08063998 128.76067599 -34.83684397 133.68034059 -34 140 C-32.97884952 143.12328184 -31.58167039 145.96650284 -30.0625 148.875 C-29.32319744 150.3510514 -28.58487465 151.82759405 -27.84765625 153.3046875 C-27.51773682 153.94390137 -27.18781738 154.58311523 -26.84790039 155.24169922 C-24.64296831 159.81409222 -24.2092822 164.02538706 -25 169 C-29.4877415 179.73083577 -38.45128794 186.60695943 -47.25 193.70703125 C-57.90908054 202.35728559 -57.90908054 202.35728559 -63.40625 214.45703125 C-64.243527 229.08844688 -54.04303175 242.83455295 -46.375 254.625 C-40.21971166 264.24527903 -34.15997805 274.37334847 -35.1953125 286.23828125 C-35.81486385 288.9586749 -36.62315045 290.6769861 -38.75 292.5 C-41.87238737 293.19386386 -43.92239009 292.87931712 -47 292 C-51.94506846 288.72567623 -54.90975995 284.28622283 -58.25 279.5 C-59.4002321 277.87963335 -60.55127658 276.25984307 -61.703125 274.640625 C-62.26322266 273.84978516 -62.82332031 273.05894531 -63.40039062 272.24414062 C-66.83693861 267.42290298 -70.40902599 262.70698496 -74 258 C-74.45503906 257.36578125 -74.91007812 256.7315625 -75.37890625 256.078125 C-79.01201631 251.23397826 -83.70879479 248.75911699 -89.5234375 247.41796875 C-95.58452231 246.68927653 -101.69492117 246.67766638 -107.79492188 246.5703125 C-114.06972471 246.38004684 -119.60358579 245.54688359 -125.60546875 243.68310547 C-129.38552482 242.60474119 -132.07691638 242.46805646 -136 243 C-141.96195678 246.35360069 -144.74556989 252.16650193 -148.0703125 257.94140625 C-151.91074486 264.02856927 -155.1092335 265.83254835 -161.9765625 267.41796875 C-168.11799889 268.46733229 -174.42156567 268.46243567 -180.63793945 268.53393555 C-187.71813212 268.68130172 -194.39390713 269.32695214 -200.234375 273.65625 C-207.37816388 282.34663235 -210.45454664 291.75699844 -212.8125 302.6171875 C-214.36459084 307.03860417 -216.77793776 309.88896888 -221 312 C-224.92252847 312.54103841 -227.51145695 312.81323877 -231.0234375 310.89453125 C-240.23819239 303.51908514 -245.07931626 292.01140068 -250.12744141 281.625 C-254.13577909 273.0507397 -254.13577909 273.0507397 -261 267 C-265.32868412 266.86036503 -268.82149755 266.95143241 -273 268 C-275.515625 268.30859375 -275.515625 268.30859375 -278.25 268.4375 C-279.14203125 268.49808594 -280.0340625 268.55867188 -280.953125 268.62109375 C-287.45081273 267.2965651 -291.6971215 262.76715598 -295.37890625 257.46875 C-296.45396419 255.82146268 -297.51507956 254.16499715 -298.5625 252.5 C-303.25713721 245.0922657 -307.79560544 238.6888461 -316 235 C-322.07678872 234.00456413 -327.53765035 235.31165887 -333.375 237 C-344.15639081 240.10519242 -352.03103803 240.13619569 -362 235 C-365.34310601 233.08039704 -368.60705492 231.04419858 -371.875 229 C-380.06864797 224.00058746 -387.59175827 220.31741889 -396.93359375 218.03125 C-397.63581055 217.85916016 -398.33802734 217.68707031 -399.06152344 217.50976562 C-400.42744733 217.18224506 -401.79649115 216.86733658 -403.16894531 216.56835938 C-412.15990532 214.50991467 -417.85659359 210.74385927 -423.875 203.8125 C-427.90899252 199.31433836 -431.91887798 195.02081087 -436.5 191.0625 C-449.21856461 179.76174259 -450.57696885 166.54036666 -452.78808594 150.37426758 C-453.93336423 142.50237801 -456.18163176 135.43182024 -459 128 C-459.75193123 125.9590438 -460.50210324 123.91743806 -461.25 121.875 C-461.72179687 120.63363281 -461.72179687 120.63363281 -462.203125 119.3671875 C-467.94430288 102.31251204 -460.11756306 84.46394408 -453.875 68.625 C-448.91123943 56.11212423 -448.91123943 56.11212423 -446 43 C-445.87625 42.13004395 -445.7525 41.26008789 -445.625 40.36376953 C-445.13214904 36.74715138 -444.66801879 33.12786635 -444.23242188 29.50390625 C-443.56311969 24.43791731 -442.65817753 20.47225412 -440 16 C-435.71464802 17.40541113 -433.12376865 19.46772497 -429.875 22.5625 C-426.3629931 25.97758472 -426.3629931 25.97758472 -422 28 C-421.61908203 26.42798828 -421.61908203 26.42798828 -421.23046875 24.82421875 C-420.88336225 23.44517401 -420.53567556 22.06627522 -420.1875 20.6875 C-420.02185547 19.99720703 -419.85621094 19.30691406 -419.68554688 18.59570312 C-418.99716887 15.90713243 -418.24888059 13.43361669 -416.86328125 11.01953125 C-413.13205683 8.97791789 -408.92741168 9.55709384 -404.921875 10.47753906 C-402.75363114 11.12862357 -400.62983344 11.85780193 -398.5 12.625 C-397.81164062 12.86089844 -397.12328125 13.09679687 -396.4140625 13.33984375 C-392.70787563 14.62579827 -389.04263821 15.98315773 -385.39355469 17.42456055 C-376.13546959 21.06480786 -367.01934652 23.66290884 -357.25 25.5625 C-356.17499741 25.77653976 -356.17499741 25.77653976 -355.07827759 25.99490356 C-323.84085932 32.19436712 -293.20312642 36.43446777 -261.33129883 32.72583008 C-245.46311336 30.94666492 -230.20174526 30.77073372 -215 36 C-212.30080106 36.92629588 -209.59504508 37.82422384 -206.875 38.6875 C-206.18446533 38.90680176 -205.49393066 39.12610352 -204.7824707 39.35205078 C-197.93815568 41.34043895 -191.14154246 41.58665546 -184.04248047 41.54760742 C-180.02482414 41.5771321 -177.62046335 41.64283903 -174.08203125 43.6796875 C-171.83454971 46.18438551 -170.41277643 48.54208726 -168.9375 51.5625 C-167.07934648 55.35601563 -165.68394364 57.83094907 -162 60 C-154.38058397 62.53980534 -145.94667252 62.5648796 -138 63 C-135.4089928 70.31517293 -135.61941996 77.5929279 -135.52148438 85.28320312 C-135.34982419 91.98632415 -134.96836753 97.03163247 -130 102 C-126.2165072 102.9458732 -123.78226282 103.26630224 -120.0625 102 C-116.6707263 99.78496411 -113.78662438 97.28571984 -110.83203125 94.5234375 C-107.56653458 91.80799251 -104.54532162 91.92661081 -100.453125 91.86279297 C-92.62925567 91.67897487 -87.59233439 90.72178657 -82 85 C-76.40007107 79.68525263 -70.49090972 75.64858018 -63.81054688 71.81542969 C-56.50869396 67.48195418 -52.27270064 62.12395343 -48.5625 54.5 C-43.60503201 45.03967898 -35.40915187 36.46971729 -25 33 C-23.85301414 30.71247195 -23.85301414 30.71247195 -23 28 C-22.69320313 27.17242187 -22.38640625 26.34484375 -22.0703125 25.4921875 C-21.60238281 24.19667969 -21.60238281 24.19667969 -21.125 22.875 C-20.77695312 21.92109375 -20.42890625 20.9671875 -20.0703125 19.984375 C-19.35911426 18.0013259 -18.66622469 16.01161111 -17.9921875 14.015625 C-15.98962125 8.18137688 -14.25507892 3.46937022 -9.1875 -0.375 C-5.68029533 -1.37705848 -3.5017596 -1.02637781 0 0 Z " fill="#000000" transform="translate(480,100)"/>
</svg>
